<?xml version="1.0" encoding="UTF-8"?>
<svg width="336px" height="95px" viewBox="0 0 336 95" version="1.1" xmlns="http://www.w3.org/2000/svg" xmlns:xlink="http://www.w3.org/1999/xlink">
    <!-- Generator: Sketch 50.2 (55047) - http://www.bohemiancoding.com/sketch -->
    <title>Page 1</title>
    <desc>Created with Sketch.</desc>
    <defs>
        <polygon id="path-1" points="0.0002 0.025 22.8412 0.025 22.8412 25.3128 0.0002 25.3128"></polygon>
        <polygon id="path-3" points="0.8325 0.025 36.7255 0.025 36.7255 24.7119 0.8325 24.7119"></polygon>
        <polygon id="path-5" points="0 95.9748 335.824 95.9748 335.824 0.9998 0 0.9998"></polygon>
    </defs>
    <g id="Desktop-" stroke="none" stroke-width="1" fill="none" fill-rule="evenodd">
        <g id="Home-Panel-1" transform="translate(-57.000000, -33.000000)">
            <g id="Page-1" transform="translate(57.000000, 32.000000)">
                <g id="Group-3" transform="translate(0.000000, 0.974800)">
                    <mask id="mask-2" fill="white">
                        <use xlink:href="#path-1"></use>
                    </mask>
                    <g id="Clip-2"></g>
                    <path d="M19.6922,25.3128 L22.8412,14.8458 L22.0852,14.5808 C20.5662,18.3718 17.0752,22.2368 12.6362,22.2368 C9.4482,22.2368 9.8662,20.3968 9.8662,19.6468 L9.8662,4.7138 C9.8662,2.0888 10.3962,0.9258 11.9532,0.9638 L11.9152,0.0248 L0.0002,0.0248 L0.0002,0.9638 C1.5572,0.9258 2.0872,2.0888 2.0872,4.7138 L2.0872,20.0228 C2.0872,22.6488 1.5572,23.8118 0.0002,23.7728 L0.0002,24.7118 L17.1902,24.7118 C17.9112,24.7118 19.2762,24.6008 19.6922,25.3128" id="Fill-1" fill="#FEFEFE" mask="url(#mask-2)"></path>
                </g>
                <g id="Group-6" transform="translate(27.000000, 0.974800)">
                    <mask id="mask-4" fill="white">
                        <use xlink:href="#path-3"></use>
                    </mask>
                    <g id="Clip-5"></g>
                    <path d="M3.8675,5.7649 L6.4845,20.1349 C6.5605,20.6239 6.8645,22.0869 6.8645,22.5369 C6.8645,23.2879 6.3725,23.6609 5.6895,23.7729 L5.6895,24.7119 L16.9955,24.7119 L16.9955,23.7729 C16.3125,23.5879 16.0475,23.3999 16.0475,22.6489 C16.0475,22.1219 16.2365,21.3359 16.3125,20.8479 L18.3995,8.9179 L20.4865,20.7359 C20.5625,21.2599 20.7515,22.0489 20.7515,22.5369 C20.7515,23.3229 20.3335,23.6999 19.6125,23.7729 L19.6125,24.7119 L31.8305,24.7119 L31.8305,23.7729 C30.9215,23.6229 30.6175,23.2109 30.6175,22.2719 C30.6175,21.5249 30.8835,20.3969 31.0335,19.6469 L34.1475,4.7909 C34.4885,3.0279 34.6005,1.4879 36.7255,0.9639 L36.7255,0.0249 L29.6675,0.0249 L29.6675,0.9639 C30.6175,1.1149 31.1095,1.6389 31.1095,2.6129 C31.1095,3.1779 30.9595,3.7779 30.8445,4.3019 L27.6575,20.7739 L25.0785,4.9759 C25.0015,4.4139 24.8485,3.5139 24.8485,2.9509 C24.8485,1.7879 25.2285,1.1879 26.4445,0.9639 L26.4445,0.0249 L15.3645,0.0249 L15.3645,0.9639 C16.4275,0.9639 17.0345,1.5649 17.0345,2.6509 C17.0345,3.1779 16.9185,3.7019 16.8425,4.1899 L13.9605,20.7739 L11.6445,6.5919 C11.4935,5.6529 11.1905,4.2639 11.1905,3.3629 C11.1905,1.8619 11.8735,1.0759 13.3545,0.9639 L13.3545,0.0249 L0.8325,0.0249 L0.8325,0.9639 C3.2615,1.1879 3.5265,3.8899 3.8675,5.7649" id="Fill-4" fill="#FEFEFE" mask="url(#mask-4)"></path>
                </g>
                <path d="M148.4105,60.7094 C146.9205,63.6534 143.8915,65.7844 140.5075,65.7844 C135.3235,65.7844 132.3975,60.5064 132.3975,55.8884 C132.3975,53.6544 133.1165,51.1694 134.7585,49.5444 C135.8865,48.4294 137.7875,47.4634 139.4795,47.4634 C142.9175,47.4634 145.6375,50.6604 146.4095,53.7574 L147.4865,53.5034 L145.1755,43.4044 C144.8165,44.0144 144.0485,44.2674 143.3275,44.2674 C142.8685,44.2674 142.3525,44.1644 141.8905,44.1144 L136.5545,43.6584 C128.7535,43.6584 122.1335,47.7674 122.1335,56.0914 C122.1335,65.2744 129.6245,69.9934 138.1465,69.9934 L141.1225,69.7934 C141.9435,69.6904 142.7645,69.5374 143.5855,69.5374 C144.4575,69.5374 145.0225,69.5904 145.7405,70.0964 L149.3845,61.1664 L148.4105,60.7094 Z" id="Fill-7" fill="#FEFEFE"></path>
                <path d="M177.2493,64.0068 L177.2493,52.1828 C177.2493,50.1548 177.1993,47.7178 175.9163,46.0428 C174.6323,44.3678 172.7843,43.6588 170.6793,43.6588 C166.6763,43.6588 162.8293,45.6868 160.1093,48.5798 L160.1093,35.0818 L147.7933,35.7938 L147.7933,37.0628 C149.6923,37.1618 150.5633,38.4808 150.5633,41.1218 L150.5633,64.0068 C150.5633,66.6448 149.6923,67.9658 147.7933,68.0658 L147.7933,69.3348 L162.9323,69.3348 L162.9323,68.0658 C161.0343,67.9658 160.1593,66.6448 160.1593,64.0068 L160.1093,57.8168 C160.1093,55.8358 160.2123,53.8578 161.0343,52.0298 C161.7523,50.4078 163.2913,49.0368 165.1373,49.0368 C167.6013,49.0368 167.6533,51.4738 167.6533,53.1988 L167.6533,64.0068 C167.5503,66.6448 166.6763,67.9658 164.7783,68.0658 L164.7783,69.3348 L179.9693,69.3348 L179.9693,68.0658 C178.0703,67.9658 177.1993,66.6448 177.2493,64.0068" id="Fill-9" fill="#FEFEFE"></path>
                <path d="M209.6317,63.956 L209.6317,52.894 C209.8877,47.007 208.2447,43.86 202.7557,43.657 C198.5967,43.657 195.0057,45.841 192.5417,48.732 C192.1827,47.11 192.0297,45.382 191.1057,43.911 L180.1737,44.623 L180.1737,45.892 C182.0717,45.992 182.9457,47.313 182.9457,49.951 L182.9457,63.956 C182.9457,66.646 182.0717,67.965 180.1737,68.068 L180.1737,69.336 L195.6207,69.336 L195.6207,68.068 C193.7217,67.965 192.5417,66.646 192.5417,63.956 L192.5417,57.513 C192.5417,55.788 192.6977,53.503 193.4657,51.929 C194.1337,50.457 195.7767,49.138 197.6217,49.138 C200.2917,49.138 199.9827,52.488 200.0357,54.213 L200.0357,63.956 C200.0357,66.646 199.0087,67.965 197.1097,68.068 L197.1097,69.336 L212.4547,69.336 L212.4547,68.068 C210.5557,67.965 209.6317,66.646 209.6317,63.956" id="Fill-11" fill="#FEFEFE"></path>
                <path d="M225.848,47.5654 C228.259,47.5654 229.954,49.5964 229.954,51.8774 L229.901,52.7404 L221.433,54.4154 C221.333,51.6744 222.46,47.5654 225.848,47.5654 Z M238.523,59.6924 C236.983,63.2954 233.598,65.7824 229.542,65.7824 C224.718,65.7824 222.257,61.8234 221.742,57.5114 L240.218,53.8084 C239.038,46.8034 233.289,43.6594 226.516,43.6594 C218.51,43.6594 211.172,48.0714 211.172,56.6484 C211.172,60.8114 213.071,64.5644 216.455,67.0014 C219.431,69.1824 223.537,69.9954 227.132,69.9954 C229.336,69.9954 231.494,69.6914 233.648,69.3354 C234.008,69.2854 234.42,69.1824 234.779,69.1824 C235.444,69.1824 235.856,69.4884 236.418,69.8414 L239.6,60.0994 L238.523,59.6924 Z" id="Fill-13" fill="#FEFEFE"></path>
                <path d="M246.3743,41.2724 C248.9913,41.2724 251.6613,39.5974 251.6613,36.8574 C251.6613,33.9664 249.5063,32.1394 246.6833,32.1394 C243.9633,32.1394 241.2443,33.7634 241.2443,36.7074 C241.2443,39.5974 243.6543,41.2724 246.3743,41.2724" id="Fill-15" fill="#FEFEFE"></path>
                <path d="M251.3519,63.9551 L251.3519,43.9131 L239.0359,44.6221 L239.0359,45.8911 C240.9349,45.9911 241.8089,47.3121 241.8089,49.9501 L241.8089,63.9551 C241.8089,66.6451 240.9349,67.9641 239.0359,68.0671 L239.0359,69.3361 L254.2269,69.3361 L254.2269,68.0671 C252.3259,67.9641 251.4549,66.6451 251.3519,63.9551" id="Fill-17" fill="#FEFEFE"></path>
                <path d="M21.7181,23.02 C21.7181,25.16 23.5021,26.396 25.5121,26.396 C27.4461,26.396 29.4211,25.16 29.4211,23.132 C29.4211,20.995 27.8251,19.644 25.7391,19.644 C23.7281,19.644 21.7181,20.845 21.7181,23.02" id="Fill-19" fill="#FEFEFE"></path>
                <path d="M59.386,23.02 C59.386,25.16 61.17,26.396 63.18,26.396 C65.114,26.396 67.089,25.16 67.089,23.132 C67.089,20.995 65.493,19.644 63.407,19.644 C61.396,19.644 59.386,20.845 59.386,23.02" id="Fill-21" fill="#FEFEFE"></path>
                <path d="M270.3397,66.1894 C265.7217,66.1894 263.8727,61.1144 263.8727,57.2584 C263.8727,54.9744 264.4907,52.6404 265.7747,50.7124 C267.0547,48.7844 269.2627,47.2094 271.6227,47.2094 L273.1627,47.3124 L273.1627,61.1644 C273.1627,63.4994 273.5217,66.1894 270.3397,66.1894 M282.7577,63.9554 L282.7577,35.0824 L269.7747,35.7924 L269.7747,37.0604 C273.4187,37.1634 273.1627,40.0034 273.1627,42.8474 L273.1627,43.8594 L269.6737,43.6564 C260.7437,43.6564 253.6087,48.0724 253.6087,57.6654 C253.6087,61.4704 255.0477,65.2234 258.3307,67.4074 C261.4117,69.4364 265.4157,69.5884 269.0067,69.4854 L273.7277,69.3854 L285.5817,69.3354 L285.5817,68.0674 C283.6827,67.9144 282.8107,66.5954 282.7577,63.9554" id="Fill-23" fill="#FEFEFE"></path>
                <path d="M299.7464,47.5654 C302.1564,47.5654 303.8524,49.5964 303.8524,51.8774 L303.7994,52.7404 L295.3314,54.4154 C295.2304,51.6744 296.3584,47.5654 299.7464,47.5654 Z M312.4214,59.6924 C310.8814,63.2954 307.4934,65.7824 303.4404,65.7824 C298.6154,65.7824 296.1524,61.8234 295.6404,57.5114 L314.1164,53.8084 C312.9354,46.8034 307.1874,43.6594 300.4114,43.6594 C292.4084,43.6594 285.0664,48.0714 285.0664,56.6484 C285.0664,60.8114 286.9694,64.5644 290.3534,67.0014 C293.3294,69.1824 297.4354,69.9954 301.0294,69.9954 C303.2344,69.9954 305.3924,69.6914 307.5464,69.3354 C307.9054,69.2854 308.3144,69.1824 308.6744,69.1824 C309.3424,69.1824 309.7544,69.4884 310.3164,69.8414 L313.4984,60.0994 L312.4214,59.6924 Z" id="Fill-25" fill="#FEFEFE"></path>
                <path d="M333.2571,43.8618 C330.0251,43.8618 326.4841,46.6528 325.2511,49.5458 C325.0981,47.6178 324.8921,45.5868 323.7111,43.9118 L312.8321,44.6208 L312.8321,45.8898 C314.7311,45.9928 315.6021,47.3118 315.6541,49.9518 L315.6541,63.9568 C315.6021,66.6448 314.7311,67.9658 312.8321,68.0658 L312.8321,69.3348 L328.2791,69.3348 L328.2791,68.0658 C326.3811,67.9658 325.3011,66.6448 325.2511,64.0068 L325.2511,57.8668 C325.2511,55.8888 325.0981,54.1608 326.0711,52.3358 C326.8931,50.7118 328.3831,49.6958 330.2811,49.6958 C331.8201,49.6958 332.9471,50.1018 334.0261,51.1678 L335.8231,44.2148 C335.0021,44.0648 334.1281,43.8618 333.2571,43.8618" id="Fill-27" fill="#FEFEFE"></path>
                <polygon id="Fill-29" fill="#FEFEFE" points="122.9949 64.1084 123.0979 63.5994 122.6119 62.7014 122.4469 61.3364 120.7429 58.7284 116.6899 55.5024 113.7729 54.3714 113.0159 53.6854 110.5059 52.7704 107.2119 52.3644 106.4049 51.9314 105.9729 51.8404 105.0839 51.7934 103.9739 51.6984 103.4089 51.1834 96.9569 50.7924 96.5569 50.5774 93.2359 50.2954 92.0769 50.4564 91.1579 50.5364 90.4839 50.5304 88.7829 50.0474 83.8169 50.0944 81.6059 49.9064 78.1799 50.1354 77.7469 50.0474 77.0739 50.0414 73.4319 50.2244 57.2169 49.1644 56.7309 49.3294 55.8389 49.2794 53.4109 49.0494 52.5219 48.9994 51.2799 48.4784 49.9289 48.4664 47.5559 47.9814 47.6359 47.5984 47.4739 47.2984 47.7679 46.9624 47.3619 46.7454 49.5189 45.0584 50.4879 44.7254 52.0769 43.5894 52.4009 43.1244 53.3989 42.6624 55.0409 41.2704 55.7979 40.8934 56.7659 40.5604 58.9499 38.7474 60.0799 38.7124 60.7579 38.7174 61.0549 38.3824 61.5639 38.0854 61.9409 37.3634 64.8749 35.1734 65.5529 35.1764 66.0909 34.7554 66.7389 34.8884 66.6029 34.4644 70.3499 32.7044 72.2369 32.2924 73.2879 31.5774 74.4739 31.2884 75.6609 31.0004 78.0889 30.1704 78.5979 29.8764 79.3019 29.7524 81.1359 29.5964 81.7009 29.0484 82.0239 28.5834 82.7249 28.4604 83.9909 27.7854 84.5289 27.3644 85.0679 26.9434 86.2269 26.7824 91.6229 25.7634 93.8299 24.8834 96.3149 24.8624 96.9329 24.0564 98.1199 23.7684 99.1699 23.0524 99.6289 23.0174 100.6009 22.6814 107.6119 21.4574 109.2309 21.2604 109.7169 21.0924 110.3349 21.3514 112.6839 20.9004 119.5129 22.6994 119.8919 23.0444 120.5369 23.1794 123.3129 21.7514 123.4739 20.9864 124.4989 20.3974 124.4159 19.7174 124.0369 19.3734 123.4689 17.7954 123.1449 17.1954 123.3039 16.4294 121.5199 15.2674 121.4109 14.7134 120.9519 13.6894 118.8449 12.9884 118.1939 10.7284 119.2149 9.0774 119.2419 8.9504 119.1329 8.3944 118.7559 8.0494 118.3499 7.8374 116.4899 8.1204 113.8989 7.5874 113.6289 7.7994 113.1429 7.9674 111.8509 8.7654 110.2849 8.7094 109.5579 8.9594 108.3979 9.1184 106.2409 9.7424 105.1069 9.7744 104.9749 10.4134 104.1919 10.9164 103.1409 11.6314 103.1149 11.7584 101.9549 11.9204 100.9569 12.3824 100.4479 12.6764 100.2029 12.7594 98.8849 13.6864 98.4259 13.7244 97.6959 13.9754 94.7019 15.3584 93.7339 15.6884 92.9009 16.4474 91.2289 16.9034 86.8869 19.3374 86.1069 19.8444 85.1359 20.1764 79.8259 22.9434 78.2919 23.8264 77.8329 23.8654 76.8079 24.4534 75.3779 24.8244 74.8659 25.1194 73.2759 26.2584 71.8749 26.5024 71.5509 26.9674 69.3699 27.7154 69.2879 28.1004 64.4929 30.5734 63.9779 30.8674 62.5769 31.1114 61.6879 32.1274 56.6749 34.5554 56.4599 34.5144 55.9449 34.8064 54.3819 35.8164 53.7109 35.8134 53.1989 36.1074 53.6019 36.3184 52.0389 37.3284 52.0129 37.4584 51.2859 37.7084 50.5319 38.0854 43.0669 42.5414 39.3489 45.2344 38.5929 45.6144 36.7889 46.7034 35.7909 47.1664 34.3629 48.6024 34.0959 49.8774 34.8279 50.6914 36.2589 51.3834 41.7689 54.1094 42.6839 54.0304 43.9529 54.4244 46.5169 55.0814 54.0169 55.8194 55.2029 55.5314 60.6009 55.5754 60.6549 55.3194 63.2979 55.5964 63.5419 55.5134 64.8909 55.5254 72.0659 54.5984 72.9289 54.7774 73.4139 54.6094 76.0839 54.7574 78.2149 54.2654 81.0769 54.5864 82.3449 54.9784 87.0929 54.8864 91.7349 55.3074 101.1249 56.6994 103.3909 57.6944 103.5819 57.8684 103.7709 58.0394 105.6899 58.5664 110.2819 62.4334 110.9589 63.5024 111.1769 63.5494 112.1269 67.5994 111.0299 71.7614 107.1529 77.3544 106.4549 77.4754 106.3469 77.9844 98.9379 83.2474 96.9719 84.0424 96.6739 84.3774 96.6209 84.6364 96.3769 84.7184 95.4609 84.7954 89.2889 87.3884 88.3439 87.5914 87.4259 87.6714 81.9269 89.2014 79.3369 89.7344 79.2809 89.9904 78.3919 89.9414 74.3769 90.8474 73.7259 90.7124 73.6739 90.9674 72.5139 91.1294 71.1129 91.3744 67.2269 91.6424 64.9869 91.5804 59.6739 92.2214 46.8059 91.3124 41.8629 90.1674 41.4599 89.9524 39.5439 89.4254 32.2239 85.6634 28.8179 82.5704 28.1699 82.4374 28.2789 81.9314 27.0079 80.4744 26.4129 80.0834 26.0359 79.7414 25.4949 79.0994 24.4939 78.4934 24.3289 77.1304 21.9769 73.3244 20.7049 71.8674 19.0569 71.1294 17.5229 73.0774 18.4719 74.9994 18.3359 75.6354 18.8249 76.5334 19.1479 77.1334 19.5279 77.4784 19.2569 77.6874 20.8289 80.9334 20.5609 82.2114 22.2419 84.9484 22.6449 85.1634 23.3219 86.2324 24.6469 87.4354 27.9959 89.7194 32.6679 92.1364 34.9369 93.1374 41.5779 94.7624 44.9249 94.9154 48.3769 95.6244 49.6989 95.7624 51.2909 95.6894 52.5859 95.9544 52.8809 95.6154 55.2829 95.9744 58.0109 95.8714 58.9529 95.6664 59.8419 95.7124 69.1199 94.4234 70.2269 94.5204 73.7879 93.6494 77.2149 93.4224 81.6919 92.4784 83.1199 92.1074 83.3609 92.0254 85.0589 91.4414 86.1659 91.5334 86.6519 91.3684 87.6489 90.9094 88.2669 91.1684 88.1589 90.6144 89.2949 90.5794 90.0219 90.3324 90.4809 90.2914 91.6939 89.8764 92.6359 89.6704 93.1479 89.3754 94.1189 89.0434 97.1649 87.4064 98.5159 87.4184 100.9689 86.4554 101.8279 85.5694 102.0989 85.3574 102.8519 84.9814 105.2779 84.1484 107.1119 82.9294 107.8119 81.7434 108.2679 81.7014 109.5109 81.1604 111.9629 80.1974 116.1889 76.1444 117.7229 74.2014 119.2859 73.1894 120.6049 71.1994 121.2199 69.3304 122.5979 68.1504 122.7559 66.3194 123.2129 66.2804 122.8589 64.7444"></polygon>
                <polygon id="Fill-31" fill="#FAD150" points="128.0247 79.2256 130.1677 79.2256 130.1677 85.4246 131.3597 85.4246 131.3597 79.2256 133.5047 79.2256 133.5047 78.2166 128.0247 78.2166"></polygon>
                <path d="M136.6404,81.5674 L135.8134,81.5674 L135.8134,79.2104 L136.6014,79.2104 C137.1434,79.2104 137.5494,79.3014 137.8174,79.4774 C138.0884,79.6544 138.2214,79.9484 138.2214,80.3554 C138.2214,80.7554 138.0974,81.0584 137.8474,81.2614 C137.5994,81.4674 137.1964,81.5674 136.6404,81.5674 M139.4484,80.3164 C139.4484,79.6134 139.2214,79.0864 138.7714,78.7384 C138.3184,78.3884 137.6234,78.2144 136.6814,78.2144 L134.6204,78.2144 L134.6204,85.4234 L135.8134,85.4234 L135.8134,82.5454 L136.9904,82.5454 L138.7364,85.4234 L140.0934,85.4234 L138.0324,82.2334 C138.9774,81.8534 139.4484,81.2144 139.4484,80.3164" id="Fill-33" fill="#FAD150"></path>
                <path d="M142.5057,82.4077 L143.1647,80.5267 C143.3357,80.0467 143.4677,79.6057 143.5597,79.2017 C143.5917,79.3317 143.6537,79.5407 143.7387,79.8237 C143.8267,80.1057 143.8977,80.3117 143.9477,80.4447 L144.6307,82.4077 L142.5057,82.4077 Z M142.9147,78.1867 L140.1857,85.4247 L141.4427,85.4247 L142.1577,83.4237 L144.9457,83.4237 L145.6727,85.4247 L146.9387,85.4247 L144.2127,78.1867 L142.9147,78.1867 Z" id="Fill-35" fill="#FAD150"></path>
                <path d="M149.9402,84.4321 L149.0922,84.4321 L149.0922,79.2021 L150.1262,79.2021 C151.7592,79.2021 152.5752,80.0641 152.5752,81.7891 C152.5752,83.5521 151.6972,84.4321 149.9402,84.4321 M150.1552,78.2151 L147.9002,78.2151 L147.9002,85.4241 L149.9402,85.4241 C151.1972,85.4241 152.1602,85.1091 152.8282,84.4791 C153.4962,83.8491 153.8322,82.9401 153.8322,81.7501 C153.8322,80.6291 153.5082,79.7611 152.8632,79.1421 C152.2182,78.5241 151.3152,78.2151 150.1552,78.2151" id="Fill-37" fill="#FAD150"></path>
                <mask id="mask-6" fill="white">
                    <use xlink:href="#path-5"></use>
                </mask>
                <g id="Clip-40"></g>
                <polygon id="Fill-39" fill="#FAD150" mask="url(#mask-6)" points="155.397 85.4238 156.589 85.4238 156.589 78.2158 155.397 78.2158"></polygon>
                <polygon id="Fill-41" fill="#FAD150" mask="url(#mask-6)" points="157.6976 79.2256 159.8406 79.2256 159.8406 85.4246 161.0326 85.4246 161.0326 79.2256 163.1786 79.2256 163.1786 78.2166 157.6976 78.2166"></polygon>
                <polygon id="Fill-42" fill="#FAD150" mask="url(#mask-6)" points="164.293 85.4238 165.485 85.4238 165.485 78.2158 164.293 78.2158"></polygon>
                <path d="M172.0775,83.8379 C171.7155,84.2909 171.1825,84.5179 170.4735,84.5179 C169.7605,84.5179 169.2245,84.2879 168.8635,83.8289 C168.5005,83.3699 168.3185,82.6989 168.3185,81.8099 C168.3185,80.9269 168.5005,80.2559 168.8665,79.7989 C169.2275,79.3399 169.7695,79.1139 170.4845,79.1139 C171.1915,79.1139 171.7235,79.3399 172.0835,79.7989 C172.4395,80.2559 172.6195,80.9269 172.6195,81.8099 C172.6195,82.7079 172.4365,83.3819 172.0775,83.8379 M170.4845,78.1009 C169.3845,78.1009 168.5365,78.4219 167.9415,79.0579 C167.3495,79.6959 167.0525,80.6089 167.0525,81.8009 C167.0525,82.9899 167.3475,83.9089 167.9385,84.5529 C168.5275,85.2009 169.3725,85.5249 170.4735,85.5249 C171.5625,85.5249 172.4015,85.1979 172.9955,84.5469 C173.5875,83.8969 173.8845,82.9839 173.8845,81.8099 C173.8845,80.6319 173.5875,79.7199 172.9955,79.0719 C172.4045,78.4249 171.5685,78.1009 170.4845,78.1009" id="Fill-43" fill="#FAD150" mask="url(#mask-6)"></path>
                <path d="M180.4324,81.9927 C180.4324,82.2577 180.4414,82.6287 180.4624,83.1057 C180.4824,83.5787 180.4944,83.8557 180.5034,83.9297 L180.4744,83.9297 L176.8974,78.2167 L175.4494,78.2167 L175.4494,85.4247 L176.5324,85.4247 L176.5324,81.6777 C176.5324,81.1717 176.5094,80.6127 176.4614,79.9997 L176.4384,79.6797 L176.4794,79.6797 L180.0644,85.4247 L181.5244,85.4247 L181.5244,78.2167 L180.4324,78.2167 L180.4324,81.9927 Z" id="Fill-44" fill="#FAD150" mask="url(#mask-6)"></path>
                <path d="M184.806,82.4077 L185.466,80.5267 C185.636,80.0467 185.769,79.6057 185.86,79.2017 C185.892,79.3317 185.951,79.5407 186.039,79.8237 C186.128,80.1057 186.199,80.3117 186.248,80.4447 L186.931,82.4077 L184.806,82.4077 Z M185.215,78.1867 L182.487,85.4247 L183.744,85.4247 L184.459,83.4237 L187.246,83.4237 L187.973,85.4247 L189.239,85.4247 L186.514,78.1867 L185.215,78.1867 Z" id="Fill-45" fill="#FAD150" mask="url(#mask-6)"></path>
                <polygon id="Fill-46" fill="#FAD150" mask="url(#mask-6)" points="191.3943 78.2163 190.2023 78.2163 190.2023 85.4243 194.4823 85.4243 194.4823 84.4123 191.3943 84.4123"></polygon>
                <path d="M202.5452,78.2148 L201.0242,82.6768 C200.9672,82.8368 200.8942,83.0778 200.8062,83.4068 C200.7142,83.7368 200.6492,84.0258 200.6062,84.2758 C200.5792,84.1108 200.5202,83.8608 200.4322,83.5248 C200.3402,83.1868 200.2552,82.9098 200.1752,82.6978 L198.6542,78.2148 L197.4292,78.2148 L199.9732,85.4238 L201.2302,85.4238 L203.7812,78.2148 L202.5452,78.2148 Z" id="Fill-47" fill="#FAD150" mask="url(#mask-6)"></path>
                <path d="M206.1009,82.4077 L206.7599,80.5267 C206.9309,80.0467 207.0629,79.6057 207.1549,79.2017 C207.1869,79.3317 207.2459,79.5407 207.3339,79.8237 C207.4219,80.1057 207.4929,80.3117 207.5429,80.4447 L208.2259,82.4077 L206.1009,82.4077 Z M206.5099,78.1867 L203.7809,85.4247 L205.0389,85.4247 L205.7539,83.4237 L208.5409,83.4237 L209.2679,85.4247 L210.5339,85.4247 L207.8049,78.1867 L206.5099,78.1867 Z" id="Fill-48" fill="#FAD150" mask="url(#mask-6)"></path>
                <polygon id="Fill-49" fill="#FAD150" mask="url(#mask-6)" points="212.6898 78.2163 211.4978 78.2163 211.4978 85.4243 215.7768 85.4243 215.7768 84.4123 212.6898 84.4123"></polygon>
                <path d="M221.556,82.7656 C221.556,83.9336 220.994,84.5166 219.869,84.5166 C219.292,84.5166 218.863,84.3756 218.583,84.0936 C218.304,83.8106 218.165,83.3716 218.165,82.7776 L218.165,78.2146 L216.967,78.2146 L216.967,82.8596 C216.967,83.6896 217.22,84.3406 217.721,84.8146 C218.224,85.2856 218.928,85.5236 219.831,85.5236 C220.44,85.5236 220.961,85.4146 221.4,85.1996 C221.836,84.9846 222.171,84.6756 222.401,84.2786 C222.633,83.8786 222.748,83.4126 222.748,82.8806 L222.748,78.2146 L221.556,78.2146 L221.556,82.7656 Z" id="Fill-50" fill="#FAD150" mask="url(#mask-6)"></path>
                <polygon id="Fill-51" fill="#FAD150" mask="url(#mask-6)" points="224.6136 85.4248 228.7376 85.4248 228.7376 84.4238 225.8056 84.4238 225.8056 82.1608 228.5516 82.1608 228.5516 81.1748 225.8056 81.1748 225.8056 79.2108 228.7376 79.2108 228.7376 78.2168 224.6136 78.2168"></polygon>
                <path d="M233.7938,81.9717 C233.5468,81.7837 233.1518,81.5767 232.6168,81.3567 C232.1428,81.1617 231.8128,81.0057 231.6298,80.8887 C231.4478,80.7707 231.3148,80.6437 231.2358,80.5117 C231.1568,80.3757 231.1148,80.2177 231.1148,80.0287 C231.1148,79.7577 231.2148,79.5367 231.4158,79.3727 C231.6158,79.2047 231.9068,79.1217 232.2928,79.1217 C232.8018,79.1217 233.3818,79.2577 234.0288,79.5257 L234.4088,78.5657 C233.7168,78.2627 233.0228,78.1127 232.3218,78.1127 C231.5948,78.1127 231.0148,78.2837 230.5828,78.6277 C230.1498,78.9747 229.9348,79.4487 229.9348,80.0497 C229.9348,80.5297 230.0698,80.9417 230.3438,81.2827 C230.6148,81.6237 231.0858,81.9277 231.7508,82.1957 C232.3958,82.4507 232.8198,82.6717 233.0258,82.8607 C233.2318,83.0487 233.3348,83.2757 233.3348,83.5467 C233.3348,83.8437 233.2228,84.0817 232.9988,84.2617 C232.7748,84.4377 232.4248,84.5267 231.9538,84.5267 C231.6328,84.5267 231.2828,84.4827 230.9088,84.3937 C230.5358,84.3057 230.1818,84.1847 229.8498,84.0287 L229.8498,85.1447 C230.3768,85.3977 231.0508,85.5247 231.8748,85.5247 C232.6988,85.5247 233.3468,85.3417 233.8148,84.9767 C234.2828,84.6117 234.5178,84.1087 234.5178,83.4667 C234.5178,83.1397 234.4588,82.8577 234.3438,82.6187 C234.2268,82.3777 234.0438,82.1627 233.7938,81.9717" id="Fill-52" fill="#FAD150" mask="url(#mask-6)"></path>
                <path d="M236.369,84.0635 C236.127,84.0635 235.945,84.1275 235.818,84.2545 C235.692,84.3845 235.63,84.5695 235.63,84.8085 C235.63,85.0465 235.692,85.2315 235.818,85.3645 C235.945,85.5005 236.127,85.5675 236.369,85.5675 C236.607,85.5675 236.79,85.5005 236.919,85.3645 C237.046,85.2265 237.111,85.0405 237.111,84.8085 C237.111,84.5785 237.049,84.3965 236.922,84.2635 C236.796,84.1315 236.61,84.0635 236.369,84.0635" id="Fill-53" fill="#FAD150" mask="url(#mask-6)"></path>
                <polygon id="Fill-54" fill="#FAD150" mask="url(#mask-6)" points="240.5731 79.2256 242.7161 79.2256 242.7161 85.4246 243.9081 85.4246 243.9081 79.2256 246.0531 79.2256 246.0531 78.2166 240.5731 78.2166"></polygon>
                <path d="M251.8358,83.8379 C251.4738,84.2909 250.9408,84.5179 250.2318,84.5179 C249.5188,84.5179 248.9828,84.2879 248.6218,83.8289 C248.2588,83.3699 248.0768,82.6989 248.0768,81.8099 C248.0768,80.9269 248.2588,80.2559 248.6248,79.7989 C248.9858,79.3399 249.5278,79.1139 250.2428,79.1139 C250.9498,79.1139 251.4818,79.3399 251.8418,79.7989 C252.1978,80.2559 252.3778,80.9269 252.3778,81.8099 C252.3778,82.7079 252.1948,83.3819 251.8358,83.8379 M250.2428,78.1009 C249.1428,78.1009 248.2948,78.4219 247.6998,79.0579 C247.1078,79.6959 246.8108,80.6089 246.8108,81.8009 C246.8108,82.9899 247.1058,83.9089 247.6968,84.5529 C248.2858,85.2009 249.1308,85.5249 250.2318,85.5249 C251.3208,85.5249 252.1598,85.1979 252.7538,84.5469 C253.3458,83.8969 253.6428,82.9839 253.6428,81.8099 C253.6428,80.6319 253.3458,79.7199 252.7538,79.0719 C252.1628,78.4249 251.3268,78.1009 250.2428,78.1009" id="Fill-55" fill="#FAD150" mask="url(#mask-6)"></path>
                <polygon id="Fill-56" fill="#FAD150" mask="url(#mask-6)" points="254.3924 79.2256 256.5354 79.2256 256.5354 85.4246 257.7274 85.4246 257.7274 79.2256 259.8734 79.2256 259.8734 78.2166 254.3924 78.2166"></polygon>
                <path d="M262.3455,82.4077 L263.0045,80.5267 C263.1755,80.0467 263.3075,79.6057 263.3995,79.2017 C263.4315,79.3317 263.4905,79.5407 263.5785,79.8237 C263.6665,80.1057 263.7375,80.3117 263.7875,80.4447 L264.4705,82.4077 L262.3455,82.4077 Z M262.7545,78.1867 L260.0255,85.4247 L261.2825,85.4247 L261.9975,83.4237 L264.7855,83.4237 L265.5125,85.4247 L266.7785,85.4247 L264.0525,78.1867 L262.7545,78.1867 Z" id="Fill-57" fill="#FAD150" mask="url(#mask-6)"></path>
                <polygon id="Fill-58" fill="#FAD150" mask="url(#mask-6)" points="268.9339 78.2163 267.7419 78.2163 267.7419 85.4243 272.0219 85.4243 272.0219 84.4123 268.9339 84.4123"></polygon>
                <path d="M279.1004,81.4219 C278.8154,81.6309 278.3674,81.7369 277.7554,81.7369 L277.1224,81.7369 L277.1224,79.2029 L277.9494,79.2029 C278.4914,79.2029 278.8914,79.3029 279.1474,79.5089 C279.4034,79.7119 279.5304,80.0209 279.5304,80.4329 C279.5304,80.8799 279.3894,81.2099 279.1004,81.4219 M278.0294,78.2159 L275.9304,78.2159 L275.9304,85.4249 L277.1224,85.4249 L277.1224,82.7259 L277.8794,82.7259 C278.8004,82.7259 279.5094,82.5259 280.0104,82.1259 C280.5074,81.7249 280.7574,81.1479 280.7574,80.3949 C280.7574,79.6789 280.5314,79.1349 280.0784,78.7669 C279.6244,78.3989 278.9414,78.2159 278.0294,78.2159" id="Fill-59" fill="#FAD150" mask="url(#mask-6)"></path>
                <path d="M284.2327,81.5674 L283.4057,81.5674 L283.4057,79.2104 L284.1947,79.2104 C284.7367,79.2104 285.1427,79.3014 285.4107,79.4774 C285.6807,79.6544 285.8137,79.9484 285.8137,80.3554 C285.8137,80.7554 285.6897,81.0584 285.4397,81.2614 C285.1927,81.4674 284.7897,81.5674 284.2327,81.5674 M287.0417,80.3164 C287.0417,79.6134 286.8147,79.0864 286.3637,78.7384 C285.9107,78.3884 285.2157,78.2144 284.2737,78.2144 L282.2137,78.2144 L282.2137,85.4234 L283.4057,85.4234 L283.4057,82.5454 L284.5837,82.5454 L286.3287,85.4234 L287.6857,85.4234 L285.6257,82.2334 C286.5697,81.8534 287.0417,81.2144 287.0417,80.3164" id="Fill-60" fill="#FAD150" mask="url(#mask-6)"></path>
                <polygon id="Fill-61" fill="#FAD150" mask="url(#mask-6)" points="288.7425 85.4248 292.8665 85.4248 292.8665 84.4238 289.9345 84.4238 289.9345 82.1608 292.6805 82.1608 292.6805 81.1748 289.9345 81.1748 289.9345 79.2108 292.8665 79.2108 292.8665 78.2168 288.7425 78.2168"></polygon>
                <path d="M297.5443,79.122 C297.8473,79.122 298.1363,79.166 298.4093,79.251 C298.6833,79.34 298.9453,79.44 299.1903,79.555 L299.6193,78.575 C298.9863,78.266 298.2983,78.112 297.5533,78.112 C296.8473,78.112 296.2293,78.26 295.7043,78.56 C295.1783,78.86 294.7773,79.29 294.5003,79.852 C294.2213,80.414 294.0823,81.071 294.0823,81.818 C294.0823,83.01 294.3683,83.926 294.9423,84.564 C295.5133,85.204 296.3313,85.524 297.3993,85.524 C298.1243,85.524 298.7723,85.415 299.3463,85.204 L299.3463,84.191 C299.0303,84.288 298.7313,84.365 298.4413,84.426 C298.1533,84.488 297.8543,84.518 297.5443,84.518 C296.8293,84.518 296.2843,84.291 295.9043,83.837 C295.5273,83.384 295.3393,82.713 295.3393,81.83 C295.3393,80.985 295.5363,80.323 295.9283,79.843 C296.3193,79.364 296.8583,79.122 297.5443,79.122" id="Fill-62" fill="#FAD150" mask="url(#mask-6)"></path>
                <polygon id="Fill-63" fill="#FAD150" mask="url(#mask-6)" points="300.915 85.4238 302.106 85.4238 302.106 78.2158 300.915 78.2158"></polygon>
                <path d="M307.513,81.9717 C307.266,81.7837 306.871,81.5767 306.335,81.3567 C305.862,81.1617 305.532,81.0057 305.349,80.8887 C305.166,80.7707 305.034,80.6437 304.954,80.5117 C304.875,80.3757 304.834,80.2177 304.834,80.0287 C304.834,79.7577 304.934,79.5367 305.134,79.3727 C305.334,79.2047 305.626,79.1217 306.011,79.1217 C306.521,79.1217 307.101,79.2577 307.748,79.5257 L308.128,78.5657 C307.436,78.2627 306.742,78.1127 306.041,78.1127 C305.314,78.1127 304.734,78.2837 304.301,78.6277 C303.868,78.9747 303.654,79.4487 303.654,80.0497 C303.654,80.5297 303.789,80.9417 304.063,81.2827 C304.333,81.6237 304.805,81.9277 305.47,82.1957 C306.115,82.4507 306.538,82.6717 306.744,82.8607 C306.951,83.0487 307.054,83.2757 307.054,83.5467 C307.054,83.8437 306.942,84.0817 306.718,84.2617 C306.494,84.4377 306.144,84.5267 305.673,84.5267 C305.352,84.5267 305.002,84.4827 304.628,84.3937 C304.254,84.3057 303.901,84.1847 303.569,84.0287 L303.569,85.1447 C304.095,85.3977 304.77,85.5247 305.593,85.5247 C306.417,85.5247 307.066,85.3417 307.534,84.9767 C308.001,84.6117 308.237,84.1087 308.237,83.4667 C308.237,83.1397 308.178,82.8577 308.063,82.6187 C307.946,82.3777 307.763,82.1627 307.513,81.9717" id="Fill-64" fill="#FAD150" mask="url(#mask-6)"></path>
                <polygon id="Fill-65" fill="#FAD150" mask="url(#mask-6)" points="309.648 85.4238 310.837 85.4238 310.837 78.2158 309.648 78.2158"></polygon>
                <path d="M317.431,83.8379 C317.069,84.2909 316.536,84.5179 315.827,84.5179 C315.115,84.5179 314.578,84.2879 314.216,83.8289 C313.855,83.3699 313.672,82.6989 313.672,81.8099 C313.672,80.9269 313.855,80.2559 314.219,79.7989 C314.581,79.3399 315.123,79.1139 315.838,79.1139 C316.545,79.1139 317.077,79.3399 317.437,79.7989 C317.793,80.2559 317.972,80.9269 317.972,81.8099 C317.972,82.7079 317.79,83.3819 317.431,83.8379 M315.838,78.1009 C314.738,78.1009 313.89,78.4219 313.295,79.0579 C312.703,79.6959 312.407,80.6089 312.407,81.8009 C312.407,82.9899 312.701,83.9089 313.292,84.5529 C313.881,85.2009 314.726,85.5249 315.827,85.5249 C316.915,85.5249 317.754,85.1979 318.349,84.5469 C318.941,83.8969 319.239,82.9839 319.239,81.8099 C319.239,80.6319 318.941,79.7199 318.349,79.0719 C317.757,78.4249 316.921,78.1009 315.838,78.1009" id="Fill-66" fill="#FAD150" mask="url(#mask-6)"></path>
                <path d="M325.7864,81.9927 C325.7864,82.2577 325.7954,82.6287 325.8154,83.1057 C325.8364,83.5787 325.8484,83.8557 325.8564,83.9297 L325.8274,83.9297 L322.2514,78.2167 L320.8034,78.2167 L320.8034,85.4247 L321.8864,85.4247 L321.8864,81.6777 C321.8864,81.1717 321.8624,80.6127 321.8154,79.9997 L321.7924,79.6797 L321.8334,79.6797 L325.4184,85.4247 L326.8784,85.4247 L326.8784,78.2167 L325.7864,78.2167 L325.7864,81.9927 Z" id="Fill-67" fill="#FAD150" mask="url(#mask-6)"></path>
                <path d="M329.7962,84.2636 C329.6702,84.1316 329.4842,84.0636 329.2432,84.0636 C329.0012,84.0636 328.8192,84.1276 328.6922,84.2546 C328.5662,84.3846 328.5042,84.5696 328.5042,84.8076 C328.5042,85.0466 328.5662,85.2316 328.6922,85.3646 C328.8192,85.4996 329.0012,85.5676 329.2432,85.5676 C329.4822,85.5676 329.6642,85.4996 329.7932,85.3646 C329.9202,85.2256 329.9842,85.0406 329.9842,84.8076 C329.9842,84.5786 329.9232,84.3956 329.7962,84.2636" id="Fill-68" fill="#FAD150" mask="url(#mask-6)"></path>
            </g>
        </g>
    </g>
</svg>