<?xml version="1.0" encoding="UTF-8"?>
<svg width="27px" height="27px" viewBox="0 0 27 27" version="1.1" xmlns="http://www.w3.org/2000/svg" xmlns:xlink="http://www.w3.org/1999/xlink">
    <!-- Generator: Sketch 50.2 (55047) - http://www.bohemiancoding.com/sketch -->
    <title>Fill 1</title>
    <desc>Created with Sketch.</desc>
    <defs></defs>
    <g id="Desktop-" stroke="none" stroke-width="1" fill="none" fill-rule="evenodd">
        <g id="Panel-2-Capabilities-Breakout-Panel-1" transform="translate(-1281.000000, -316.000000)" fill="#DCA909">
            <path d="M1295.91323,340 L1295.91323,336.773119 L1295.91323,336.77018 L1295.91129,336.77018 L1295,336.040361 L1295,335.878723 C1295.24624,335.853252 1295.44111,335.649491 1295.44111,335.392829 C1295.44111,335.137147 1295.24624,334.934365 1295,334.907915 L1295,333.12402 C1295.23267,333.092672 1295.42269,332.898707 1295.42269,332.646944 C1295.42269,332.403997 1295.23267,332.203174 1295,332.169867 L1295,330.381074 C1295.20068,330.353644 1295.36161,330.203762 1295.4033,330 L1297.14833,330 C1297.19389,330.224334 1297.38488,330.393809 1297.61367,330.393809 C1297.85216,330.393809 1298.03539,330.224334 1298.07901,330 L1299.91226,330 C1299.95686,330.225313 1300.1459,330.399687 1300.38342,330.399687 C1300.61997,330.399687 1300.80902,330.225313 1300.85361,330 L1301.15124,330 L1301.83858,330.873824 L1301.83858,330.883621 L1301.84634,330.883621 L1301.84828,330.88558 L1301.84828,330.883621 L1305,330.883621 C1304.53854,335.717085 1300.70625,339.567986 1295.91323,340 Z M1293.14362,336.780143 L1293.14362,336.783086 L1293.14362,340 C1288.31163,339.504562 1284.46685,335.677426 1284,330.884921 L1287.08257,330.884921 L1287.80315,330 L1288.10744,330 C1288.15403,330.225645 1288.34632,330.400275 1288.58916,330.400275 C1288.831,330.400275 1289.02428,330.225645 1289.07087,330 L1290.83715,330 C1290.88274,330.224664 1291.07107,330.394388 1291.31391,330.394388 C1291.54782,330.394388 1291.7421,330.224664 1291.78967,330 L1293.61245,330 C1293.6521,330.195232 1293.80077,330.34043 1294,330.376729 L1294,332.185814 C1293.78789,332.243697 1293.63326,332.430099 1293.63326,332.650839 C1293.63326,332.880408 1293.78789,333.059943 1294,333.115864 L1294,334.933778 C1293.79483,334.995585 1293.64119,335.177082 1293.64119,335.400765 C1293.64119,335.625429 1293.79483,335.806926 1294,335.868733 L1294,336.104189 L1293.14065,336.780143 L1293.14362,336.780143 Z M1293.14362,319 L1293.14362,322.163005 L1293.1466,322.163005 L1294,322.823068 L1294,323.132013 C1293.79483,323.193801 1293.64119,323.375245 1293.64119,323.599843 C1293.64119,323.82346 1293.79483,324.004904 1294,324.066693 L1294,325.882111 C1293.78789,325.938996 1293.63326,326.118478 1293.63326,326.34798 C1293.63326,326.576501 1293.78789,326.756964 1294,326.812868 L1294,328.620439 C1293.79978,328.657709 1293.65111,328.802864 1293.61245,329 L1291.78967,329 C1291.74309,328.773441 1291.54882,328.603766 1291.31391,328.603766 C1291.07008,328.603766 1290.88175,328.773441 1290.83715,329 L1289.07087,329 C1289.02428,328.773441 1288.831,328.598862 1288.58916,328.598862 C1288.34632,328.598862 1288.15304,328.773441 1288.10744,329 L1287.80414,329 L1287.08257,328.113378 L1284,328.113378 C1284.46585,323.322283 1288.31163,319.496273 1293.14362,319 Z M1295.90936,322.17238 L1295.91323,322.17238 L1295.91323,319 C1300.70625,319.431929 1304.53951,323.282076 1305,328.114594 L1301.83955,328.114594 L1301.83955,328.113614 L1301.83858,328.114594 L1301.15124,329 L1300.85458,329 C1300.80902,328.773751 1300.61997,328.599412 1300.38342,328.599412 C1300.1459,328.599412 1299.95686,328.773751 1299.91226,329 L1298.07998,329 C1298.03635,328.773751 1297.85216,328.60431 1297.61367,328.60431 C1297.38391,328.60431 1297.19292,328.773751 1297.14736,329 L1295.40427,329 C1295.36258,328.795299 1295.20165,328.644466 1295,328.617042 L1295,326.828599 C1295.23267,326.797258 1295.42269,326.602351 1295.42269,326.351616 C1295.42269,326.099902 1295.23267,325.904995 1295,325.873653 L1295,324.092067 C1295.24624,324.066601 1295.44111,323.86288 1295.44111,323.607248 C1295.44111,323.350637 1295.24624,323.147894 1295,323.12145 L1295,322.853085 L1295.90936,322.17238 Z M1294.5,316 C1287.05629,316 1281,322.056292 1281,329.5 C1281,336.943708 1287.05629,343 1294.5,343 C1301.94371,343 1308,336.943708 1308,329.5 C1308,322.056292 1301.94371,316 1294.5,316 Z" id="Fill-1"></path>
        </g>
    </g>
</svg>