<?xml version="1.0" encoding="UTF-8"?>
<svg width="817px" height="817px" viewBox="0 0 817 817" version="1.1" xmlns="http://www.w3.org/2000/svg" xmlns:xlink="http://www.w3.org/1999/xlink">
    <!-- Generator: Sketch 50.2 (55047) - http://www.bohemiancoding.com/sketch -->
    <title>Wind Stop</title>
    <desc>Created with Sketch.</desc>
    <defs></defs>
    <g id="Desktop-" stroke="none" stroke-width="1" fill="none" fill-rule="evenodd">
        <g id="Home-Panel-1" transform="translate(-312.000000, -37.000000)" fill="#FFFFFF">
            <g id="Wind-Stop" style="mix-blend-mode: overlay;" transform="translate(312.000000, 37.000000)">
                <path d="M407.5,571.687057 C317.518732,571.687057 244.312943,498.481268 244.312943,408.5 C244.312943,318.518732 317.518732,245.312943 407.5,245.312943 C497.481268,245.312943 570.687057,318.518732 570.687057,408.5 C570.687057,498.481268 497.481268,571.687057 407.5,571.687057 M407.5,244 C316.793988,244 243,317.795301 243,408.5 C243,499.206012 316.793988,573 407.5,573 C498.206012,573 572,499.206012 572,408.5 C572,317.795301 498.206012,244 407.5,244" id="Fill-1"></path>
                <path d="M407.999342,664.684695 C267.014832,664.684695 152.315301,549.984871 152.315301,409 C152.315301,268.015129 267.014832,153.315305 407.999342,153.315305 C548.983853,153.315305 663.684699,268.015129 663.684699,409 C663.684699,549.984871 548.983853,664.684695 407.999342,664.684695 M407.999342,152 C266.290101,152 151,267.28908 151,409 C151,550.71092 266.290101,666 407.999342,666 C549.709899,666 665,550.71092 665,409 C665,267.28908 549.709899,152 407.999342,152" id="Fill-3"></path>
                <path d="M53.3297587,422 C53.3297587,405.639628 66.6406434,392.329787 82.9993351,392.329787 C99.3593566,392.329787 112.670241,405.639628 112.670241,422 C112.670241,438.360372 99.3593566,451.670213 82.9993351,451.670213 C66.6406434,451.670213 53.3297587,438.360372 53.3297587,422 M114,422 C114,404.906915 100.093383,391 82.9993351,391 C65.9066166,391 52,404.906915 52,422 C52,439.093085 65.9066166,453 82.9993351,453 C100.093383,453 114,439.093085 114,422" id="Fill-5"></path>
                <path d="M87,313.329787 C103.360372,313.329787 116.670213,326.639628 116.670213,343 C116.670213,359.360372 103.360372,372.670213 87,372.670213 C70.6396277,372.670213 57.3297872,359.360372 57.3297872,343 C57.3297872,326.639628 70.6396277,313.329787 87,313.329787 M87,374 C104.093085,374 118,360.094415 118,343 C118,325.906915 104.093085,312 87,312 C69.9069149,312 56,325.906915 56,343 C56,360.094415 69.9069149,374 87,374" id="Fill-7"></path>
                <path d="M113,235.329759 C129.360372,235.329759 142.670213,248.639314 142.670213,264.999335 C142.670213,281.359357 129.360372,294.670241 113,294.670241 C96.6396277,294.670241 83.3297872,281.359357 83.3297872,264.999335 C83.3297872,248.639314 96.6396277,235.329759 113,235.329759 M113,296 C130.093085,296 144,282.093383 144,264.999335 C144,247.906617 130.093085,234 113,234 C95.9069149,234 82,247.906617 82,264.999335 C82,282.093383 95.9069149,296 113,296" id="Fill-9"></path>
                <path d="M155,166.329787 C171.360372,166.329787 184.670213,179.639628 184.670213,196 C184.670213,212.360372 171.360372,225.670213 155,225.670213 C138.639628,225.670213 125.329787,212.360372 125.329787,196 C125.329787,179.639628 138.639628,166.329787 155,166.329787 M155,227 C172.093085,227 186,213.094415 186,196 C186,178.906915 172.093085,165 155,165 C137.906915,165 124,178.906915 124,196 C124,213.094415 137.906915,227 155,227" id="Fill-11"></path>
                <path d="M214,110.329787 C230.360372,110.329787 243.670213,123.639628 243.670213,140 C243.670213,156.360372 230.360372,169.670213 214,169.670213 C197.639628,169.670213 184.329787,156.360372 184.329787,140 C184.329787,123.639628 197.639628,110.329787 214,110.329787 M214,171 C231.093085,171 245,157.094415 245,140 C245,122.906915 231.093085,109 214,109 C196.906915,109 183,122.906915 183,140 C183,157.094415 196.906915,171 214,171" id="Fill-13"></path>
                <path d="M286,72.3297587 C302.360372,72.3297587 315.670213,85.6393137 315.670213,101.999335 C315.670213,118.359357 302.360372,131.670241 286,131.670241 C269.639628,131.670241 256.329787,118.359357 256.329787,101.999335 C256.329787,85.6393137 269.639628,72.3297587 286,72.3297587 M286,133 C303.093085,133 317,119.093383 317,101.999335 C317,84.9066166 303.093085,71 286,71 C268.906915,71 255,84.9066166 255,101.999335 C255,119.093383 268.906915,133 286,133" id="Fill-15"></path>
                <path d="M363,50.3297587 C379.360372,50.3297587 392.670213,63.6393137 392.670213,79.9993351 C392.670213,96.3593566 379.360372,109.670241 363,109.670241 C346.639628,109.670241 333.329787,96.3593566 333.329787,79.9993351 C333.329787,63.6393137 346.639628,50.3297587 363,50.3297587 M363,111 C380.093085,111 394,97.0933834 394,79.9993351 C394,62.9066166 380.093085,49 363,49 C345.906915,49 332,62.9066166 332,79.9993351 C332,97.0933834 345.906915,111 363,111" id="Fill-17"></path>
                <path d="M446,51.3297587 C462.360372,51.3297587 475.670213,64.6393137 475.670213,80.9993351 C475.670213,97.3593566 462.360372,110.670241 446,110.670241 C429.639628,110.670241 416.329787,97.3593566 416.329787,80.9993351 C416.329787,64.6393137 429.639628,51.3297587 446,51.3297587 M446,112 C463.093085,112 477,98.0933834 477,80.9993351 C477,63.9066166 463.093085,50 446,50 C428.906915,50 415,63.9066166 415,80.9993351 C415,98.0933834 428.906915,112 446,112" id="Fill-19"></path>
                <path d="M527,69.3297587 C543.360372,69.3297587 556.670213,82.6393137 556.670213,98.9993351 C556.670213,115.359357 543.360372,128.670241 527,128.670241 C510.639628,128.670241 497.329787,115.359357 497.329787,98.9993351 C497.329787,82.6393137 510.639628,69.3297587 527,69.3297587 M527,130 C544.093085,130 558,116.093383 558,98.9993351 C558,81.9066166 544.093085,68 527,68 C509.906915,68 496,81.9066166 496,98.9993351 C496,116.093383 509.906915,130 527,130" id="Fill-21"></path>
                <path d="M596,106.329787 C612.360372,106.329787 625.670213,119.639628 625.670213,136 C625.670213,152.360372 612.360372,165.670213 596,165.670213 C579.639628,165.670213 566.329787,152.360372 566.329787,136 C566.329787,119.639628 579.639628,106.329787 596,106.329787 M596,167 C613.093085,167 627,153.094415 627,136 C627,118.906915 613.093085,105 596,105 C578.906915,105 565,118.906915 565,136 C565,153.094415 578.906915,167 596,167" id="Fill-23"></path>
                <path d="M654.000665,163.329787 C670.361388,163.329787 683.670184,176.639628 683.670184,193 C683.670184,209.360372 670.361388,222.670213 654.000665,222.670213 C637.639942,222.670213 624.329816,209.360372 624.329816,193 C624.329816,176.639628 637.639942,163.329787 654.000665,163.329787 M654.000665,224 C671.094117,224 685,210.094415 685,193 C685,175.906915 671.094117,162 654.000665,162 C636.907213,162 623,175.906915 623,193 C623,210.094415 636.907213,224 654.000665,224" id="Fill-25"></path>
                <path d="M699.999335,232.329787 C716.360058,232.329787 729.670184,245.639628 729.670184,262 C729.670184,278.360372 716.360058,291.670213 699.999335,291.670213 C683.638612,291.670213 670.329816,278.360372 670.329816,262 C670.329816,245.639628 683.638612,232.329787 699.999335,232.329787 M669,262 C669,279.094415 682.905883,293 699.999335,293 C717.092787,293 731,279.094415 731,262 C731,244.906915 717.092787,231 699.999335,231 C682.905883,231 669,244.906915 669,262" id="Fill-27"></path>
                <path d="M754.670213,342 C754.670213,358.360372 741.360372,371.670213 725,371.670213 C708.640957,371.670213 695.329787,358.360372 695.329787,342 C695.329787,325.639628 708.640957,312.329787 725,312.329787 C741.360372,312.329787 754.670213,325.639628 754.670213,342 M694,342 C694,359.093085 707.906915,373 725,373 C742.094415,373 756,359.093085 756,342 C756,324.906915 742.094415,311 725,311 C707.906915,311 694,324.906915 694,342" id="Fill-29"></path>
                <path d="M727,451.670241 C710.639628,451.670241 697.329787,438.359357 697.329787,422.000665 C697.329787,405.640643 710.639628,392.329759 727,392.329759 C743.360372,392.329759 756.670213,405.640643 756.670213,422.000665 C756.670213,438.359357 743.360372,451.670241 727,451.670241 M727,391 C709.906915,391 696,404.906617 696,422.000665 C696,439.093383 709.906915,453 727,453 C744.093085,453 758,439.093383 758,422.000665 C758,404.906617 744.093085,391 727,391" id="Fill-31"></path>
                <path d="M713,538.670241 C696.639628,538.670241 683.329787,525.359357 683.329787,509.000665 C683.329787,492.640643 696.639628,479.329759 713,479.329759 C729.360372,479.329759 742.670213,492.640643 742.670213,509.000665 C742.670213,525.359357 729.360372,538.670241 713,538.670241 M713,478 C695.906915,478 682,491.906617 682,509.000665 C682,526.093383 695.906915,540 713,540 C730.093085,540 744,526.093383 744,509.000665 C744,491.906617 730.093085,478 713,478" id="Fill-33"></path>
                <path d="M685,608.670213 C668.639628,608.670213 655.329787,595.360372 655.329787,579 C655.329787,562.640957 668.639628,549.329787 685,549.329787 C701.360372,549.329787 714.670213,562.640957 714.670213,579 C714.670213,595.360372 701.360372,608.670213 685,608.670213 M685,548 C667.906915,548 654,561.906915 654,579 C654,596.094415 667.906915,610 685,610 C702.093085,610 716,596.094415 716,579 C716,561.906915 702.093085,548 685,548" id="Fill-35"></path>
                <path d="M633,670.670241 C616.639628,670.670241 603.329787,657.359357 603.329787,641.000665 C603.329787,624.640643 616.639628,611.329759 633,611.329759 C649.360372,611.329759 662.670213,624.640643 662.670213,641.000665 C662.670213,657.359357 649.360372,670.670241 633,670.670241 M633,610 C615.906915,610 602,623.906617 602,641.000665 C602,658.093383 615.906915,672 633,672 C650.093085,672 664,658.093383 664,641.000665 C664,623.906617 650.093085,610 633,610" id="Fill-37"></path>
                <path d="M564,725.670241 C547.639628,725.670241 534.329787,712.359357 534.329787,696.000665 C534.329787,679.640643 547.639628,666.329759 564,666.329759 C580.360372,666.329759 593.670213,679.640643 593.670213,696.000665 C593.670213,712.359357 580.360372,725.670241 564,725.670241 M564,665 C546.906915,665 533,678.906617 533,696.000665 C533,713.093383 546.906915,727 564,727 C581.093085,727 595,713.093383 595,696.000665 C595,678.906617 581.093085,665 564,665" id="Fill-39"></path>
                <path d="M488,758.670213 C471.639628,758.670213 458.329787,745.360372 458.329787,729 C458.329787,712.640957 471.639628,699.329787 488,699.329787 C504.360372,699.329787 517.670213,712.640957 517.670213,729 C517.670213,745.360372 504.360372,758.670213 488,758.670213 M488,698 C470.906915,698 457,711.906915 457,729 C457,746.094415 470.906915,760 488,760 C505.093085,760 519,746.094415 519,729 C519,711.906915 505.093085,698 488,698" id="Fill-41"></path>
                <path d="M403,769.670213 C386.639628,769.670213 373.329787,756.359043 373.329787,740 C373.329787,723.639628 386.639628,710.329787 403,710.329787 C419.360372,710.329787 432.670213,723.639628 432.670213,740 C432.670213,756.359043 419.360372,769.670213 403,769.670213 M403,709 C385.906915,709 372,722.905585 372,740 C372,757.093085 385.906915,771 403,771 C420.093085,771 434,757.093085 434,740 C434,722.905585 420.093085,709 403,709" id="Fill-43"></path>
                <path d="M319,755.670213 C302.639628,755.670213 289.329787,742.360372 289.329787,726 C289.329787,709.640957 302.639628,696.329787 319,696.329787 C335.360372,696.329787 348.670213,709.640957 348.670213,726 C348.670213,742.360372 335.360372,755.670213 319,755.670213 M319,695 C301.906915,695 288,708.906915 288,726 C288,743.094415 301.906915,757 319,757 C336.093085,757 350,743.094415 350,726 C350,708.906915 336.093085,695 319,695" id="Fill-45"></path>
                <path d="M243,722.670213 C226.639628,722.670213 213.329787,709.360372 213.329787,693 C213.329787,676.640957 226.639628,663.329787 243,663.329787 C259.360372,663.329787 272.670213,676.640957 272.670213,693 C272.670213,709.360372 259.360372,722.670213 243,722.670213 M243,662 C225.906915,662 212,675.906915 212,693 C212,710.094415 225.906915,724 243,724 C260.093085,724 274,710.094415 274,693 C274,675.906915 260.093085,662 243,662" id="Fill-47"></path>
                <path d="M183,674.670213 C166.639628,674.670213 153.329787,661.360372 153.329787,645 C153.329787,628.640957 166.639628,615.329787 183,615.329787 C199.360372,615.329787 212.670213,628.640957 212.670213,645 C212.670213,661.360372 199.360372,674.670213 183,674.670213 M183,614 C165.906915,614 152,627.906915 152,645 C152,662.094415 165.906915,676 183,676 C200.093085,676 214,662.094415 214,645 C214,627.906915 200.093085,614 183,614" id="Fill-49"></path>
                <path d="M133,608.670213 C116.639628,608.670213 103.329787,595.360372 103.329787,579 C103.329787,562.640957 116.639628,549.329787 133,549.329787 C149.360372,549.329787 162.670213,562.640957 162.670213,579 C162.670213,595.360372 149.360372,608.670213 133,608.670213 M164,579 C164,561.906915 150.093085,548 133,548 C115.906915,548 102,561.906915 102,579 C102,596.094415 115.906915,610 133,610 C150.093085,610 164,596.094415 164,579" id="Fill-51"></path>
                <path d="M98,532.670213 C81.6396277,532.670213 68.3297872,519.359043 68.3297872,503 C68.3297872,486.639628 81.6396277,473.329787 98,473.329787 C114.360372,473.329787 127.670213,486.639628 127.670213,503 C127.670213,519.359043 114.360372,532.670213 98,532.670213 M129,503 C129,485.905585 115.093085,472 98,472 C80.9069149,472 67,485.905585 67,503 C67,520.093085 80.9069149,534 98,534 C115.093085,534 129,520.093085 129,503" id="Fill-53"></path>
                <path d="M407.5,637.683325 C281.677879,637.683325 179.313808,535.097262 179.313808,409.000658 C179.313808,282.904054 281.677879,180.316675 407.5,180.316675 C533.322121,180.316675 635.686192,282.904054 635.686192,409.000658 C635.686192,535.097262 533.322121,637.683325 407.5,637.683325 M407.5,179 C280.953971,179 178,282.178567 178,409.000658 C178,535.82275 280.953971,639 407.5,639 C534.046029,639 637,535.82275 637,409.000658 C637,282.178567 534.046029,179 407.5,179" id="Fill-55"></path>
                <g id="Group-59">
                    <path d="M815.393233,409.282399 C814.726214,412.800367 813.046167,416.248607 810.722782,418.829853 L810.222847,419.385045 L810.838557,419.80999 C812.008143,420.620412 812.858034,421.932085 813.23167,423.506882 L813.647406,424.317304 C814.36705,425.757908 814.822254,427.357702 815.002494,429.065377 C815.145897,430.521768 814.995916,432.16103 814.54729,434.071311 C813.736868,437.415617 812.018668,440.590208 809.709755,443.012264 L809.301913,443.499043 L809.74133,443.954248 C809.812373,444.026607 809.94262,444.162116 809.958407,444.193691 L809.796586,444.58443 L810.084707,444.8936 C810.881972,445.750069 811.42927,446.878871 811.666082,448.157654 L812.031824,448.977285 C814.569655,455.130439 811.638454,462.682098 807.432417,466.963125 L807.114037,467.289399 L807.325852,467.710398 C807.295592,467.755129 807.242968,467.813016 807.182449,467.882744 C807.108774,467.966943 807.028522,468.062984 806.946953,468.162971 L806.593051,468.612913 L806.987737,469.026018 C807.423208,469.481222 807.787634,470.020626 808.059968,470.610024 C808.319145,471.223103 808.482282,471.904594 808.544116,472.632132 L808.836183,473.4886 C809.811058,476.44743 809.668971,479.966713 808.436235,483.396534 L808.291517,484.142491 L808.304673,484.145122 C807.052203,487.634146 804.89327,490.615341 802.169937,492.596665 L801.552911,493.045291 L802.088369,493.589958 C803.073768,494.593776 803.646063,496.031749 803.700003,497.639436 L803.94734,498.511692 C804.761708,501.512621 804.456485,504.992436 803.085609,508.324902 C802.519892,509.774715 801.618692,511.242947 800.405691,512.69276 C799.284782,514.038639 798.023103,515.210857 796.656174,516.175206 L796.164132,516.577786 L796.508824,517.109296 C796.562765,517.190865 796.661436,517.344792 796.670646,517.376367 L796.432518,517.730269 L796.657489,518.090749 C797.271884,519.074832 797.583686,520.277309 797.560005,521.570563 L797.558689,521.657394 L797.76261,522.455976 C798.0902,523.976832 798.14414,525.581889 797.920485,527.229045 C797.813919,528.01447 797.641573,528.814367 797.412655,529.595845 C797.202156,530.26418 796.907457,530.961459 796.460146,531.85608 C794.959024,534.809647 792.646164,537.44615 789.946512,539.280124 L789.564982,539.53667 L789.692597,539.991874 C789.653129,540.031343 789.587348,540.078705 789.513673,540.135277 C789.426842,540.203689 789.328171,540.279995 789.230815,540.362879 L788.792713,540.7352 L789.104515,541.219348 C789.799162,542.300787 790.113596,543.64272 790.014924,545.09648 L790.009662,545.184626 L790.170167,545.995048 C790.301729,546.809417 790.35567,547.651414 790.331989,548.485517 C790.297782,549.213055 790.172799,549.990586 789.942565,550.927307 C789.53867,552.52447 788.867704,554.107161 787.948085,555.63328 L787.648124,556.34503 L787.662596,556.350293 C785.831253,559.37885 783.105288,561.975884 780.08594,563.545419 L779.425499,563.888795 L779.846497,564.500559 C780.249077,565.087325 780.534567,565.749082 780.691125,566.450307 C780.835844,567.18837 780.841106,567.97248 780.709544,568.777639 L780.695072,568.865786 L780.779272,569.678839 C780.997665,572.763968 780.018844,576.110905 778.024364,579.10394 C776.007518,582.115394 773.356544,584.394048 770.356931,585.688618 L769.782005,585.984633 L770.024079,586.580609 C770.0596,586.668755 770.128013,586.835839 770.13196,586.866098 L769.828051,587.168691 L769.980663,587.569955 C770.393768,588.643501 770.468758,589.877552 770.196425,591.1366 L770.178006,591.222116 L770.221422,592.043063 C770.279309,595.090038 769.233391,598.210689 767.188918,601.081372 C766.366655,602.287795 765.231275,603.44291 763.719628,604.613811 C762.377695,605.645257 760.938407,606.493832 759.441232,607.135855 L759.017602,607.310832 L759.058386,607.78314 C759.011024,607.813399 758.938665,607.848921 758.854465,607.891021 C758.754478,607.94233 758.641335,607.998902 758.528191,608.063367 L758.02694,608.346225 L758.241386,608.881683 C758.716325,610.067056 758.76895,611.435301 758.392683,612.837752 L758.369001,612.921952 L758.370317,613.74553 C758.254543,617.091151 756.878404,620.322314 754.495816,622.843042 L754.773412,623.106166 L754.569491,622.933819 C752.139541,625.830815 748.732085,628.088419 745.222011,629.131705 L744.507629,629.344836 L744.807591,630.027642 C745.381201,631.336684 745.423301,632.910166 744.924681,634.45865 L744.8589,635.34801 C744.056372,642.253699 737.45196,647.626691 731.646129,649.176491 L731.035681,649.355415 L731.177768,649.975072 C731.201449,650.073744 731.243549,650.257931 731.242233,650.28819 L730.8857,650.527633 L730.960691,650.951262 C731.164612,652.08138 731.004106,653.30096 730.498908,654.478439 L730.351559,655.37043 C729.831889,658.363465 728.209729,661.223623 725.66532,663.641733 C724.470737,664.774481 723.120911,665.759881 721.677676,666.559778 C720.175238,667.317575 718.59781,667.88066 716.987491,668.234562 L716.538865,668.326655 L716.487555,668.796332 C716.434931,668.817381 716.354678,668.838431 716.261269,668.866059 C716.154704,668.896319 716.036298,668.930525 715.916576,668.971309 L715.366647,669.152865 L715.478475,669.721212 C715.721865,670.971051 715.516628,672.319562 714.882499,673.618079 L714.690419,674.504807 C713.964196,677.65177 712.030235,680.600074 709.241121,682.802422 L709.31348,682.894515 C706.377016,685.274472 702.59724,686.850584 698.943763,687.220274 L698.200438,687.293948 L698.368837,688.021486 C698.689848,689.410781 698.435934,690.95795 697.65314,692.377504 L697.413697,693.266863 C696.637481,696.216483 694.581167,698.901663 691.464464,701.034283 C688.626671,702.970876 685.232372,704.173352 681.9078,704.415427 L681.281565,704.508836 L681.298668,705.139018 C681.302615,705.24032 681.307877,705.42977 681.297352,705.463976 L680.921085,705.644216 L680.922401,706.059952 C680.926348,706.947995 680.750055,708.262299 679.888324,709.48451 L679.571259,710.339663 C677.407064,715.988935 670.890799,720.284435 664.074571,720.552821 L663.620683,720.565977 L663.482543,721.009341 C663.425971,721.021182 663.344402,721.026444 663.248362,721.035654 C663.139166,721.046179 663.015497,721.056704 662.889198,721.072491 L662.314272,721.150113 L662.316903,721.730301 C662.326113,722.997243 661.873539,724.277341 661.00523,725.43114 L660.651328,726.263927 C659.397543,729.131979 656.945227,731.668494 653.746955,733.405113 L653.978504,733.831373 L653.782476,733.51694 C652.32477,734.424718 650.539473,735.099631 648.479212,735.527208 C646.576826,735.921894 644.681018,736.041615 642.840465,735.882425 L642.095824,735.81796 L642.126084,736.565232 C642.183971,737.982154 641.647198,739.446439 640.613121,740.6897 L640.210541,741.518541 C637.218821,747.801942 629.243533,750.36477 622.92461,749.641179 L622.291797,749.610919 L622.193125,750.233208 C622.178654,750.33451 622.148394,750.522644 622.132607,750.554219 L621.723449,750.659468 L621.649774,751.07652 C621.445853,752.229003 620.874874,753.344649 619.997356,754.301105 L619.561886,755.087845 C616.155745,760.822633 608.3778,763.039452 602.441723,762.265868 L601.985203,762.206665 L601.77865,762.63161 C601.727341,762.643451 601.644457,762.627663 601.552364,762.621085 C601.441852,762.613191 601.319499,762.606613 601.1932,762.603982 L600.619589,762.590826 L600.528811,763.156543 C600.3341,764.366913 599.653924,765.536499 598.56196,766.535055 L598.058077,767.282327 C596.289884,769.851733 593.402098,771.869894 589.923599,772.965805 L589.240792,773.298657 L589.246055,773.313129 C587.660733,773.813064 586.030679,774.106448 584.404573,774.185385 C582.466665,774.211697 580.560332,773.966992 578.777667,773.461794 L578.058022,773.255241 L577.948826,773.997251 C577.740958,775.393124 576.939745,776.724531 575.691222,777.741505 L575.14524,778.467728 C573.236275,780.948987 570.280077,782.817167 566.851571,783.718367 C563.482269,784.451167 559.857736,784.29724 556.65157,783.281581 L556.033229,783.1316 L555.820098,783.727576 C555.787208,783.822301 555.724058,783.994647 555.704324,784.02096 L555.280694,784.044641 L555.129398,784.441958 C554.712346,785.531291 553.942708,786.511428 552.900737,787.27975 L552.316602,787.977029 C551.30489,789.161087 550.056367,790.180692 548.624972,790.995061 C547.314615,791.691024 545.759552,792.210694 544.005831,792.540914 C540.752303,793.142153 537.260647,792.900079 534.176834,791.866001 L533.740048,791.716021 L533.454559,792.094919 C533.397987,792.088341 533.320365,792.063344 533.226956,792.039663 C533.123022,792.012035 533.005932,791.981776 532.886211,791.954148 L532.323125,791.829164 L532.125782,792.3712 C531.681103,793.584201 530.802269,794.651169 529.584005,795.455013 L528.976188,796.108876 C526.750159,798.307277 523.615037,799.686047 519.908935,800.09652 L519.932617,800.308335 L519.918145,800.210979 C516.058116,800.776695 512.138884,800.209663 508.877462,798.62171 L508.213074,798.296752 L507.968369,798.995346 C507.506586,800.317544 506.471193,801.459502 505.051639,802.212037 L504.379357,802.814591 C502.05071,804.86038 498.791919,806.111534 495.205539,806.340452 C493.408402,806.447018 491.683625,806.322034 490.107512,805.977341 C488.401153,805.56029 486.789518,804.940633 485.313393,804.135473 L484.735836,803.868402 L484.412193,804.413069 C484.3622,804.495953 484.270106,804.652512 484.245109,804.673562 L483.822795,804.614359 L483.596509,804.978786 C482.987377,805.958923 482.048024,806.764082 480.878438,807.310064 L480.17195,807.879728 C477.776206,809.768958 474.656871,810.826716 471.169162,810.935913 L471.145481,810.935913 C467.941947,810.935913 464.563435,810.021557 461.629602,808.359929 L461.232285,808.132327 L460.879699,808.444129 C460.827074,808.427026 460.75603,808.388873 460.673146,808.348088 C460.571844,808.29941 460.460016,808.244154 460.34161,808.194161 L459.814047,807.962612 L459.515401,808.457285 C458.856275,809.553196 457.795886,810.42019 456.450006,810.967488 L455.709312,811.500314 C452.996504,813.42375 449.587733,814.27101 446.117127,813.881586 L446.073712,814.265747 L446.088183,813.993414 C442.314985,813.798702 438.458903,812.438351 435.511914,810.262315 L434.911992,809.820267 L434.547565,810.468868 C433.84634,811.718707 432.616235,812.700159 431.082222,813.23167 L430.328372,813.717133 C424.335723,817.304829 416.239398,815.309034 411.337398,811.48058 L410.813781,811.127993 L410.403307,811.605563 C410.336211,811.683185 410.211227,811.829219 410.180968,811.847638 L409.773125,811.725285 L409.49553,812.046296 C408.71142,812.944865 407.65103,813.565837 406.428819,813.842117 L405.621029,814.259169 C400.258562,816.965399 392.547713,815.760291 387.286549,811.39638 L386.943172,811.102997 L386.545855,811.337177 C386.495861,811.306918 386.432712,811.255609 386.357721,811.197721 C386.266943,811.129309 386.168272,811.055634 386.064338,810.98196 L385.588084,810.649108 L385.19866,811.081947 C384.354032,812.021299 383.158133,812.656744 381.739895,812.923815 L380.915001,813.298766 C378.056159,814.567024 374.53556,814.777523 371.005752,813.897373 L370.889977,814.361787 L370.957074,814.003939 C367.462787,813.354022 363.934295,811.318758 361.27148,808.423079 L360.766282,807.871834 L360.283449,808.442813 C359.37304,809.525568 357.991639,810.23995 356.391845,810.454396 L355.551164,810.784617 C352.523923,811.921312 349.032267,811.952887 345.735324,810.879341 C342.481795,809.734752 339.483497,807.703435 337.289043,805.15771 L336.841733,804.706452 L336.347059,805.098507 C336.268122,805.161657 336.122088,805.277431 336.090514,805.289272 L335.716877,805.090613 L335.381394,805.348475 C334.456514,806.054963 333.285612,806.485171 331.992357,806.593051 L331.129311,806.879857 C329.646607,807.356111 328.058654,807.561348 326.412813,807.51267 C324.865644,807.390317 323.268481,807.011419 321.663425,806.38913 C318.579612,805.189285 315.736557,803.15139 313.656562,800.651712 L313.363179,800.29781 L312.922446,800.46884 C312.87903,800.433319 312.826406,800.375431 312.763256,800.308335 C312.68695,800.226766 312.600119,800.135989 312.50671,800.046526 L312.093605,799.649209 L311.643663,800.003111 C310.628005,800.801692 309.320278,801.247687 307.861256,801.292419 L307.002156,801.52923 C303.944655,802.22914 300.556934,801.754201 297.191578,800.157038 L297.104747,800.338594 L297.138953,800.258341 C293.559151,798.709857 290.520069,796.168079 288.582161,793.101369 L288.187475,792.476449 L287.612549,792.942179 C286.524531,793.82496 285.040512,794.256483 283.439402,794.148602 L283.352571,794.14334 L282.548728,794.307792 C279.495174,794.823515 276.062721,794.177546 272.893393,792.486974 C271.227818,791.584459 269.870098,790.601691 268.747874,789.488676 C267.516454,788.241468 266.470536,786.867961 265.637749,785.407623 L265.283847,784.877428 L264.723393,785.170811 C264.636562,785.215543 264.476056,785.299742 264.444481,785.303689 L264.114261,785.031356 L263.731415,785.223436 C262.698654,785.739159 261.477758,785.932555 260.192398,785.782575 L260.105567,785.773365 L259.292514,785.895718 C256.253431,786.248304 253.036741,785.508926 250.034496,783.776254 C247.238803,781.990958 244.835166,779.426815 243.265631,776.556132 L243.048554,776.14829 L242.580193,776.232489 C242.544671,776.189074 242.503887,776.119346 242.453894,776.039093 C242.394691,775.945684 242.32891,775.843066 242.255235,775.739132 L241.92633,775.265509 L241.414554,775.529948 C240.275227,776.11803 238.909613,776.299586 237.48085,776.060143 L237.395335,776.045671 L236.574388,776.12724 C234.889079,776.228543 233.230082,776.019359 231.651338,775.508898 C230.098906,774.951076 228.58989,774.127497 227.163758,773.065792 L226.482267,772.697419 L226.474373,772.71189 C223.636581,770.592427 221.310565,767.621757 220.037045,764.459006 L219.759449,763.770937 L219.109533,764.128786 C217.8097,764.843167 216.252006,765.02867 214.724571,764.652402 L214.643003,764.632668 L213.835212,764.639246 C207.625486,764.457691 201.184211,759.350454 198.850301,752.760514 L198.601649,752.182956 L198.001726,752.361881 C197.909633,752.389509 197.738602,752.440818 197.705712,752.440818 L197.432063,752.109282 L197.020274,752.225056 C195.915153,752.534227 194.681101,752.490811 193.45889,752.098757 L192.557691,752.038238 C186.380855,751.535671 180.476352,746.43896 178.521341,739.92401 L178.388464,739.475383 L177.909578,739.466174 C177.884581,739.41618 177.856953,739.34119 177.822747,739.255675 C177.781963,739.149109 177.7346,739.033335 177.681976,738.913613 L177.447795,738.38605 L176.895235,738.549187 C175.669077,738.912298 174.30741,738.832045 172.951006,738.324216 L172.047175,738.216335 C170.443435,738.011098 168.851534,737.490113 167.312259,736.666534 C165.763774,735.848219 164.421842,734.79967 163.324615,733.549831 L162.720745,733.032792 L162.703642,733.057789 C160.32237,730.430496 158.601539,727.062509 157.941098,723.706362 L157.797695,722.974877 L157.089892,723.209058 C155.736119,723.656369 154.165269,723.552435 152.677303,722.909096 L151.768209,722.753853 C150.232881,722.495992 148.715971,721.876335 147.256948,720.902776 C145.893966,720.008154 144.632286,718.866196 143.508747,717.513739 C141.310346,714.87329 139.794752,711.613183 139.243507,708.333343 L139.098789,707.715001 L138.472554,707.793939 C138.369935,707.80841 138.175224,707.833407 138.142333,707.824198 L137.922625,707.458456 L137.497679,707.509765 C136.392559,707.636064 135.221657,707.383465 134.031021,706.741443 L133.16008,706.51384 C130.234142,705.712628 127.542383,703.82866 125.378188,701.064543 C123.22715,698.297794 121.91153,695.175828 121.576047,692.036758 L121.533947,691.567082 L121.061639,691.471042 C121.045852,691.417101 121.032695,691.338164 121.015592,691.244755 C120.994543,691.134243 120.970861,691.01189 120.941918,690.886906 L120.810356,690.322505 L120.234114,690.381708 C118.98296,690.508008 117.654183,690.179103 116.420132,689.422621 L115.55577,689.148972 C112.578522,688.170151 109.818351,685.970435 107.785718,682.952402 L107.302886,682.42747 C105.449177,679.484428 104.376947,675.832267 104.342741,672.297196 L104.334847,671.552555 L103.5981,671.652543 C102.182493,671.841992 100.674792,671.444675 99.3368066,670.53295 L98.4842849,670.213254 C96.9805312,669.633066 95.5649242,668.758179 94.3006134,667.634639 C93.1362897,666.503206 92.1127374,665.142855 91.2602156,663.597001 C89.5999032,660.584232 88.7250159,657.085998 88.7960594,653.745639 L88.7658002,653.11151 L88.1356182,653.073357 C88.0343155,653.066779 87.8435506,653.054939 87.8119757,653.041782 L87.6672575,652.644465 L87.2475747,652.611575 C86.0740417,652.515534 84.9084024,652.051121 83.8730095,651.269642 L83.7111882,651.178865 C83.4954266,651.095981 83.2836118,651.014412 83.0691657,650.905216 C77.0291544,647.939808 74.0979531,640.419724 74.3229242,634.524431 L74.3518678,634.075805 L73.9216601,633.903459 C73.915082,633.846887 73.9177132,633.765319 73.9177132,633.670594 C73.9177132,633.558766 73.9190288,633.433782 73.9137663,633.304852 L73.8914008,632.725979 L73.312528,632.675985 C72.0547953,632.566789 70.8273219,631.994494 69.7616697,631.023567 L68.9670353,630.590728 C66.2344926,629.072502 63.9453138,626.389953 62.521813,623.039069 L62.1218646,622.387837 L62.099499,622.402309 C60.7707229,619.347439 60.3812994,615.588713 61.0325312,611.965496 L61.1654089,611.230064 L60.4194523,611.191911 C59.0064765,611.116921 57.60271,610.444639 56.4646987,609.298734 L55.6911142,608.825111 C54.3281319,607.972589 53.1085522,606.847734 52.0626343,605.480805 C50.9825103,604.07046 50.201032,602.577232 49.733987,601.030063 C48.6788597,597.750222 48.4828324,594.13753 49.1853734,590.859005 L49.2761512,590.230138 L48.6630723,590.07358 C48.5657164,590.047267 48.3841609,590.00122 48.3565329,589.984117 L48.2894362,589.564435 L47.8802784,589.451291 C46.7554233,589.142121 45.7016118,588.467208 44.8346182,587.502858 L44.0741899,586.979241 C41.6323992,585.338663 39.8628903,582.691636 38.8130256,579.115781 C37.8986697,575.937243 37.7986826,572.446903 38.5301673,569.285468 L38.6341013,568.838158 L38.230206,568.592137 C38.2315216,568.535565 38.247309,568.455312 38.2630965,568.363219 C38.2801995,568.255338 38.2999338,568.134301 38.3144056,568.008001 L38.3828179,567.442285 L37.8328887,567.294935 C36.5120063,566.941034 35.3595232,566.147715 34.5872543,565.06496 L33.8847132,564.479509 C31.5021254,562.475819 29.776032,559.406478 29.024813,555.837201 L28.7853702,555.88851 L28.9116697,555.85562 C27.9538984,551.967963 28.1683444,548.011894 29.5168549,544.716266 L29.8062913,544.011093 L29.0642816,543.829538 C27.6986681,543.492739 26.4567229,542.570489 25.5647325,541.229873 L24.8977132,540.616794 C22.6282688,538.494699 21.0600498,535.372733 20.4772301,531.815296 C20.1943718,530.278652 20.1891093,528.55519 20.4601271,526.690956 C20.706148,524.9596 21.1639837,523.299288 21.8204781,521.756066 L22.0296617,521.156143 L21.457367,520.886441 C21.3679048,520.844341 21.2021367,520.765404 21.1784556,520.744354 L21.194243,520.316778 L20.8127132,520.128644 C19.7733734,519.612921 18.874805,518.753821 18.2143638,517.643438 L17.5789193,516.994837 C16.4987953,515.871298 15.6094362,514.531997 14.9358388,513.016402 C14.6121963,512.288865 14.3372317,511.517911 14.1227857,510.736433 C13.9504395,510.057573 13.8346649,509.30767 13.7465184,508.313061 C13.4715538,505.012171 14.0543734,501.553406 15.3884121,498.574842 L15.5765457,498.156475 L15.2305377,497.836779 C15.2450095,497.781523 15.2739531,497.705217 15.3068436,497.617071 C15.3463122,497.511821 15.3884121,497.398678 15.4265651,497.277641 L15.6041738,496.730343 L15.0858195,496.480375 C13.9267583,495.925183 12.9531995,494.950309 12.2743396,493.662317 L11.6625763,492.96767 C9.62994348,490.711381 8.56297568,487.561787 8.49456345,483.607034 L8.35905459,483.609665 L8.37878889,483.608349 C8.19460209,479.836467 9.16289839,475.877766 11.03371,472.747906 L11.4139242,472.111146 L10.7376955,471.808554 C9.37208196,471.199422 8.27617053,470.045623 7.72887262,468.639225 L7.1934153,467.903794 C3.58335411,462.814976 3.77148776,454.598929 7.63020113,448.789151 L7.94726554,448.243169 L7.43943623,447.870848 C7.36181465,447.814277 7.21709646,447.709027 7.19867778,447.682715 L7.29998052,447.266979 L6.95923494,447.006486 C6.04487907,446.309208 5.33839114,445.298811 4.91476151,444.087125 L4.42008841,443.329328 C2.78082593,440.769132 2.04276312,437.562966 2.28615282,434.066048 C2.43218663,432.209708 2.75846039,430.623071 3.28602399,429.221935 C3.89647166,427.633982 4.6832124,426.155225 5.62651192,424.823818 L5.90016087,424.451497 L5.6186182,424.069968 C5.64361498,424.017343 5.68834605,423.947615 5.73833961,423.867362 C5.79622689,423.773953 5.86069227,423.668704 5.92384203,423.556876 L6.2053847,423.051678 L5.73965523,422.70567 C4.71873414,421.950504 3.96093704,420.816439 3.55441047,419.425829 L3.09920596,418.640404 C1.54940564,415.913124 0.98237343,412.428047 1.50335894,408.829826 L1.49678084,408.190435 C2.16511578,404.669836 3.84779372,401.221596 6.16854734,398.641665 L6.66848293,398.086473 L6.05277279,397.661528 C4.88581787,396.852422 4.03461176,395.539433 3.65834444,393.96332 L3.24523977,393.154214 C2.52428003,391.71361 2.0677599,390.113816 1.88751997,388.407457 C1.74674863,386.951066 1.89541369,385.311803 2.34140886,383.400208 C3.154462,380.05327 4.87397729,376.878679 7.18157472,374.459254 L7.58810129,373.971159 L7.1473686,373.515955 C7.07895636,373.443596 6.94739436,373.309402 6.93160692,373.277828 L7.09342818,372.887088 L6.80662303,372.577918 C6.00672609,371.718818 5.4607438,370.590016 5.22656345,369.31518 L4.85818986,368.492918 C2.32167456,362.339763 5.25156023,354.788105 9.45759726,350.508393 L9.77860853,350.182119 L9.5654781,349.759805 C9.59705298,349.713758 9.6509934,349.655871 9.71151192,349.586143 C9.78255539,349.501943 9.86412383,349.408534 9.94306103,349.308547 L10.2969628,348.859921 L9.90359243,348.446816 C9.46812222,347.988981 9.10501111,347.449576 8.83267778,346.860179 C8.57218502,346.248415 8.40904815,345.56824 8.34589839,344.836755 L8.056462,343.982918 C7.08027198,341.024088 7.22235894,337.504805 8.45509485,334.073668 L8.6037599,333.32508 L8.58797246,333.322449 C9.84044267,329.834741 11.999375,326.854861 14.7200771,324.874853 L15.3371029,324.426227 L14.8042768,323.88156 C13.8188775,322.877742 13.2452671,321.438454 13.1913267,319.830766 L12.9453058,318.95851 C12.1283058,315.961528 12.4335296,312.479082 13.8070369,309.145301 C14.3727535,307.695488 15.2726375,306.227256 16.4843235,304.778758 C17.6065473,303.432879 18.8682269,302.260662 20.235156,301.294997 L20.7285135,300.895048 L20.3838211,300.363538 C20.3298807,300.280654 20.2312092,300.128042 20.2219998,300.095151 L20.4588114,299.742565 L20.2338404,299.38077 C19.6207615,298.396686 19.307644,297.194209 19.3300095,295.899639 L19.3313251,295.812808 L19.1287196,295.014227 C18.8011303,293.490739 18.7485055,291.885683 18.9721609,290.241158 C19.0787261,289.458364 19.2510723,288.657151 19.4773589,287.875673 C19.6904894,287.206022 19.9943976,286.487694 20.4311834,285.614122 C21.9336214,282.660555 24.2451657,280.024053 26.9448179,278.191394 L27.3263477,277.934848 L27.2000481,277.479644 C27.2395167,277.440175 27.3052977,277.392813 27.3776568,277.336241 C27.4658034,277.267829 27.5631593,277.191523 27.6605151,277.108639 L28.0986166,276.735003 L27.7881303,276.252171 C27.0908517,275.1681 26.7764185,273.827483 26.87509,272.375038 L26.8803525,272.288208 L26.7211625,271.47647 C26.5909161,270.662101 26.5356601,269.820105 26.5580256,268.987317 C26.594863,268.257148 26.7185312,267.479617 26.9487647,266.542895 C27.3539757,264.945733 28.0249419,263.363042 28.9445602,261.838238 L29.2405747,261.126488 L29.2274185,261.121225 C31.0574459,258.092668 33.7847261,255.495634 36.8040739,253.927415 L37.4631995,253.584038 L37.0448324,252.97096 C36.640937,252.381562 36.3554475,251.718489 36.2002043,251.021211 C36.0568018,250.281832 36.0502237,249.499038 36.1831013,248.693879 L36.1962575,248.605733 L36.1107422,247.792679 C35.8923493,244.707551 36.8711705,241.359298 38.866966,238.367578 C40.8851271,235.353493 43.5361013,233.076154 46.5357148,231.7829 L47.1119564,231.489517 L46.8685667,230.892225 C46.8304137,230.802763 46.7633171,230.635679 46.7606858,230.60542 L47.064594,230.302828 L46.9106665,229.902879 C46.4975618,228.828018 46.4238871,227.593966 46.6949048,226.334918 L46.7146391,226.248087 L46.6685924,225.428456 C46.6107052,222.38148 47.656623,219.258198 49.7010965,216.390146 C50.5286214,215.17846 51.6640014,214.02203 53.1730176,212.857707 C54.5123187,211.826261 55.9516069,210.977686 57.4514137,210.334348 L57.8750433,210.15937 L57.8368903,209.687063 C57.882937,209.655488 57.9566118,209.621282 58.0421271,209.577866 C58.1407986,209.527873 58.2513106,209.471301 58.3618227,209.409467 L58.8670208,209.126609 L58.6512591,208.589836 C58.1750047,207.404462 58.1223799,206.036217 58.4999628,204.632451 L58.5223283,204.548251 L58.5210127,203.725989 C58.6367873,200.380367 60.0129258,197.149204 62.3941979,194.627161 L62.1139709,194.361406 L62.3231544,194.536383 C64.7504733,191.639388 68.1566134,189.381784 71.6680031,188.339813 L72.3810691,188.126683 L72.083739,187.443876 C71.508813,186.132203 71.4667132,184.558721 71.9653332,183.011552 L72.0324298,182.122193 C72.8336424,175.217819 79.4380546,169.844828 85.2452011,168.295027 L85.8543332,168.117419 L85.7135618,167.499077 C85.6898807,167.39909 85.6477808,167.213588 85.6490965,167.183328 L86.0082607,166.943886 L85.9306391,166.520256 C85.726718,165.39277 85.8872237,164.17319 86.3937374,162.993079 L86.5384556,162.099773 C87.0594411,159.106737 88.6802849,156.247895 91.2273251,153.829786 C92.4205924,152.697037 93.7677873,151.711638 95.2136536,150.911741 C96.7174072,150.153943 98.2974668,149.589543 99.9038388,149.236956 L100.352465,149.144863 L100.403774,148.675187 C100.456399,148.652821 100.537968,148.631771 100.628745,148.605459 C100.735311,148.5752 100.855032,148.540993 100.976069,148.500209 L101.527314,148.318654 L101.414171,147.74899 C101.16815,146.500467 101.373386,145.153272 102.010146,143.853439 L102.200911,142.966712 C102.927133,139.818433 104.86241,136.870129 107.648894,134.667781 L107.576534,134.578319 C110.514314,132.197047 114.29409,130.619618 117.947567,130.25256 L118.690892,130.17757 L118.523808,129.450032 C118.202797,128.060737 118.456712,126.513568 119.23819,125.094014 L119.477633,124.204655 C120.252533,121.255035 122.310162,118.569855 125.426866,116.437235 C128.265974,114.498011 131.660274,113.29685 134.98353,113.054776 L135.613712,112.967945 L135.592662,112.336448 C135.588715,112.233829 135.582137,112.043064 135.593977,112.007543 L135.97156,111.828618 L135.968929,111.410251 C135.963667,110.523523 136.13996,109.210534 137.001691,107.987008 L137.320071,107.131855 C139.484266,101.482583 146.001847,97.1870836 152.816758,96.9186971 L153.270647,96.9094878 L153.406156,96.462177 C153.462728,96.4490208 153.545612,96.4437583 153.641652,96.4358646 C153.75348,96.4253396 153.877148,96.413499 154.002132,96.3977116 L154.578373,96.3214056 L154.574427,95.7399016 C154.565217,94.4729596 155.01779,93.194177 155.884784,92.0390626 L156.241317,91.2049596 C157.495103,88.3369081 159.946103,85.8017084 163.144375,84.06509 L162.914142,83.6414604 L163.107538,83.9545779 C164.563929,83.0481158 166.34791,82.3732027 168.410802,81.9443106 C170.318451,81.548309 172.215575,81.4299032 174.050865,81.5890932 L174.795505,81.6548742 L174.766562,80.9062865 C174.708675,79.4893638 175.245448,78.0237631 176.278209,76.7805023 L176.682105,75.9516617 C179.672509,69.6695763 187.649113,67.115958 193.96672,67.829024 L194.600848,67.8605989 L194.698204,67.236995 C194.713992,67.1370079 194.74162,66.9488742 194.758723,66.9172994 L195.167881,66.8107341 L195.241555,66.3949982 C195.444161,65.2438308 196.016456,64.128185 196.89529,63.1690981 L197.328129,62.3836729 C200.7369,56.6488855 208.506952,54.4294346 214.449607,55.2043348 L214.903496,55.2609064 L215.113995,54.8399081 C215.169251,54.8372768 215.245557,54.8438549 215.33765,54.850433 C215.448162,54.8570111 215.571831,54.8649048 215.699446,54.8675361 L216.271741,54.8806923 L216.363834,54.3136601 C216.55723,53.1032897 217.238721,51.9350192 218.330686,50.935148 L218.834568,50.1891915 C220.601446,47.61847 223.491863,45.600309 226.967731,44.5070288 L227.650538,44.1715457 L227.64396,44.1583895 C229.227966,43.6571383 230.858019,43.3650707 232.486757,43.2861335 C234.441768,43.2624523 236.329683,43.5032108 238.113663,44.0097245 L238.834623,44.2149612 L238.945135,43.4742671 C239.150372,42.0783944 239.951584,40.746987 241.201423,39.7286971 L241.74609,39.0037905 C243.655055,36.5225312 246.609937,34.6543509 250.039758,33.7531512 C253.411692,33.0177196 257.032278,33.1742784 260.237129,34.189937 L260.85547,34.342549 L261.069916,33.7465731 C261.104122,33.6518485 261.165956,33.476871 261.188322,33.449243 L261.611952,33.4242462 L261.763248,33.026929 C262.176352,31.9402269 262.947306,30.96009 263.991908,30.191768 L264.574728,29.4931738 C265.587755,28.3078002 266.834963,27.2908259 268.265042,26.4764572 C269.574084,25.7818098 271.130462,25.2608243 272.885499,24.9292881 C276.141658,24.3293654 279.631998,24.5714395 282.71318,25.6055167 L283.149966,25.7528662 L283.435456,25.3752833 C283.490712,25.383177 283.567018,25.4055425 283.655164,25.4292237 C283.763045,25.4568517 283.884082,25.4884266 284.009066,25.5160546 L284.56952,25.6384072 L284.766863,25.0990031 C285.211543,23.8873171 286.090377,22.8203493 287.307325,22.0151899 L287.913826,21.3626424 C290.141171,19.1629258 293.276293,17.784156 296.981079,17.3749982 L297.719142,17.1789709 L297.715195,17.1658147 C301.337096,16.7684974 304.961629,17.361842 308.015183,18.8498082 L308.680887,19.1747663 L308.922961,18.4761721 C309.384744,17.1539741 310.420137,16.0120159 311.838375,15.2594813 L312.513288,14.6556118 C314.84062,12.6111383 318.100726,11.3586681 321.68579,11.1310659 C323.486874,11.0284475 325.207705,11.1481689 326.782502,11.494177 C328.490177,11.9099129 330.103127,12.5308855 331.577937,13.3360449 L332.155494,13.6031158 L332.480452,13.0584491 C332.530446,12.9742494 332.622539,12.8176907 332.644905,12.7966407 L333.068534,12.8558436 L333.294821,12.4927325 C333.903953,11.5125957 334.843306,10.7061206 336.011576,10.1601383 L336.718064,9.5917905 C339.116439,7.69992899 342.23709,6.64348615 345.722167,6.53560531 L345.749795,6.53560531 C348.950699,6.53560531 352.32658,7.44996119 355.261728,9.11027359 L355.660361,9.34182271 L356.011631,9.02738953 C356.064256,9.04449259 356.135299,9.08264557 356.218183,9.12211417 C356.319486,9.17079211 356.431314,9.22604815 356.548404,9.27735733 L357.077283,9.50759082 L357.373298,9.01423333 C358.03637,7.91700628 359.09676,7.0486971 360.441324,6.50403043 L361.180702,5.97120435 C363.896142,4.04776795 367.307544,3.20313994 370.772887,3.58993221 L371.562259,3.56230419 L371.559628,3.53204493 C375.088121,3.85831868 378.62977,5.17788551 381.379415,7.20788712 L381.980654,7.65125105 L382.34508,7.00133478 C383.043675,5.75281143 384.275095,4.77267456 385.810423,4.23853285 L386.564274,3.75306908 C392.559554,0.16537343 400.653248,2.16380016 405.553932,5.98962303 L406.078865,6.34615604 L406.486707,5.86727037 C406.553803,5.78833317 406.678787,5.64229936 406.710362,5.62388068 L407.116889,5.74491771 L407.3958,5.42522206 C408.17991,4.52665362 409.238984,3.905681 410.46251,3.62940081 L411.270301,3.21103366 C416.628821,0.503487762 424.342301,1.70859565 429.604781,6.07513833 L429.945526,6.3698372 L430.344159,6.13434122 C430.392837,6.16196924 430.455987,6.21327842 430.530977,6.26985008 C430.620439,6.33826232 430.721742,6.4158839 430.828307,6.48955862 L431.305877,6.81977923 L431.693985,6.3895715 C432.538613,5.44890322 433.734512,4.81214316 435.15275,4.54770354 L435.976328,4.17275185 C438.832539,2.90580982 442.350507,2.69267939 445.885578,3.57414477 L446.642059,3.64387262 L446.644691,3.61756023 C449.899534,4.39640725 453.13596,6.34747166 455.61985,9.04975507 L456.126364,9.59968422 L456.607881,9.02738953 C457.51829,7.94594992 458.899691,7.23156828 460.498169,7.01712222 L461.341481,6.68690161 C464.367407,5.55020596 467.859063,5.51731546 471.157322,6.59086135 C474.409534,7.73676634 477.410464,9.76939919 479.603602,12.3138082 L480.048282,12.7676971 L480.542955,12.3716955 C480.621892,12.3098614 480.76661,12.1927712 480.799501,12.1809306 L481.173137,12.3809048 L481.509935,12.1243589 C482.436132,11.4165554 483.608349,10.985032 484.897657,10.8784668 L485.762019,10.5916617 C487.24867,10.1140916 488.85241,9.90227681 490.477201,9.95884847 C492.025686,10.0812011 493.624164,10.4587841 495.227905,11.0823879 C498.311718,12.2822333 501.154773,14.3201287 503.236084,16.8198066 L503.526836,17.175024 L503.968884,17.0026778 C504.010984,17.0368839 504.062293,17.0947712 504.125443,17.1605522 C504.203064,17.2434362 504.289895,17.334214 504.38462,17.4249918 L504.796409,17.822309 L505.246351,17.4684072 C506.26201,16.6698259 507.569736,16.2238308 509.030074,16.1790997 L509.890489,15.9409725 C512.941412,15.2410626 516.334396,15.7173171 519.698436,17.3144797 L520.431237,17.5355039 L520.433868,17.5236633 C523.717655,19.089251 526.494929,21.4994668 528.309169,24.368834 L528.705171,24.9937535 L529.278781,24.528024 C530.36943,23.645243 531.828452,23.2137196 533.451927,23.3229161 L533.540074,23.3281786 L534.341286,23.1637261 C537.401419,22.6466874 540.829924,23.2939725 543.997937,24.9832285 C545.663512,25.8857438 547.019916,26.8685119 548.14214,27.9815264 C549.377507,29.232681 550.424741,30.6061882 551.254897,32.0625795 L551.604852,32.5954056 L552.166621,32.3020224 C552.253452,32.2559757 552.415274,32.171776 552.446848,32.1651979 L552.775753,32.4375312 L553.158599,32.248082 C554.193992,31.7310433 555.42015,31.5402784 556.698932,31.6889435 L556.787079,31.6994684 L557.598816,31.5744845 C560.65237,31.223214 563.858536,31.9625924 566.85815,33.6952639 C569.653842,35.4818758 572.056164,38.0447035 573.624383,40.9140707 L573.84146,41.3192816 L574.30719,41.2363976 C574.342712,41.2784974 574.384811,41.3469097 574.434805,41.4271625 C574.494008,41.5205715 574.559789,41.6258211 574.634779,41.7323863 L574.963684,42.2046939 L575.47546,41.9415699 C576.617419,41.3548034 577.97777,41.169301 579.41048,41.4100594 L579.495995,41.4245312 L580.316942,41.3442784 C581.994357,41.2390288 583.662563,41.4521593 585.241307,41.9626198 C586.789792,42.5191271 588.300124,43.3413895 589.728887,44.4070417 L589.880183,44.2031206 L589.801246,44.3188952 C592.916634,46.4541464 595.487356,49.6234749 596.8556,53.0125119 L597.133196,53.7005812 L597.783113,53.3427325 C599.082945,52.6283509 600.64327,52.4441641 602.168074,52.8191158 L602.248327,52.8388501 L603.057433,52.8309564 C609.264528,53.0151432 615.708435,58.1223799 618.041029,64.7110047 L618.290997,65.2898775 L618.890919,65.1096375 C618.983013,65.0820095 619.155359,65.0293847 619.184303,65.0280691 L619.45532,65.3609209 L619.869741,65.2451464 C620.978808,64.9372913 622.210229,64.9807068 623.433755,65.3714459 L624.333639,65.43328 C630.513106,65.9371625 636.414977,71.031243 638.368673,77.5475087 L638.500235,77.9987663 L638.981752,78.0066601 C639.00938,78.0566536 639.035692,78.1329596 639.071214,78.2211061 C639.111998,78.3237245 639.156729,78.439499 639.206723,78.5552736 L639.440903,79.0854684 L639.996095,78.9210159 C641.218306,78.5592205 642.582604,78.6381576 643.940324,79.145987 L644.842839,79.2538678 C646.449211,79.4604201 648.041111,79.9814056 649.579071,80.8036681 C651.128871,81.6219837 652.469488,82.6718485 653.565399,83.9203718 L654.167953,84.4360948 L654.186372,84.4124137 C656.566328,87.0370755 658.288475,90.4050626 658.950232,93.7638404 L659.093634,94.4953251 L659.801438,94.2611448 C661.159158,93.8125184 662.726061,93.9203992 664.215343,94.5624217 L665.121805,94.7176649 C666.657133,94.9728952 668.174043,95.5938678 669.633066,96.5674266 C670.994733,97.4633638 672.256412,98.6040063 673.383898,99.955148 C675.580984,102.596913 677.096578,105.858335 677.649138,109.138175 L677.796488,109.755201 L678.422723,109.676264 C678.524026,109.663108 678.718737,109.639427 678.751628,109.64732 L678.971336,110.011747 L679.39365,109.961753 C680.501402,109.832823 681.672304,110.088053 682.861625,110.730076 L683.731249,110.957678 C686.655873,111.756259 689.347631,113.641543 691.511826,116.406976 C693.665496,119.172409 694.9798,122.294375 695.315283,125.43476 L695.360014,125.899174 L695.828375,125.99653 C695.845478,126.051786 695.858634,126.13467 695.877053,126.23071 C695.896787,126.339906 695.919153,126.459628 695.948096,126.581981 L696.077027,127.149013 L696.6559,127.08981 C697.912317,126.960879 699.235831,127.292415 700.471198,128.047581 L701.33556,128.322546 C704.314124,129.301367 707.074295,131.501084 709.104296,134.519116 L709.585813,135.038786 C711.442153,137.985774 712.515699,141.637935 712.548589,145.173006 L712.556483,145.917647 L713.294546,145.818976 C714.698312,145.630842 716.215222,146.026844 717.554523,146.937253 L718.405729,147.256948 C719.909483,147.838452 721.32509,148.71334 722.590716,149.836879 C723.757671,150.970943 724.779908,152.329979 725.631114,153.874517 C727.291427,156.888602 728.166314,160.386836 728.096586,163.724563 L728.126845,164.358692 L728.755712,164.398161 C728.85833,164.404739 729.046464,164.415264 729.08067,164.429736 L729.224072,164.825737 L729.645071,164.859943 C730.814657,164.954668 731.981612,165.419082 733.020952,166.203191 L733.181457,166.292654 C733.395903,166.375538 733.606402,166.45579 733.822164,166.564987 C739.862175,169.53171 742.793377,177.050478 742.568406,182.945771 L742.539462,183.389135 L742.968354,183.562797 C742.974932,183.618053 742.972301,183.699621 742.972301,183.794346 C742.972301,183.907489 742.970985,184.035105 742.976248,184.166667 L742.999929,184.746855 L743.577486,184.795533 C744.836534,184.904729 746.065324,185.475708 747.12966,186.447952 L747.924295,186.88079 C750.656837,188.3977 752.9447,191.080249 754.368201,194.432449 L754.811565,194.244315 L754.483976,194.407452 C756.056142,197.571518 756.558708,201.615734 755.858799,205.506022 L755.725921,206.238823 L756.471877,206.279607 C757.884853,206.353282 759.289935,207.026879 760.427947,208.171468 L761.201531,208.646407 C762.564514,209.498929 763.782778,210.623784 764.828695,211.990713 C765.908819,213.399742 766.690298,214.892971 767.157343,216.44014 C768.21247,219.721296 768.407182,223.333989 767.705956,226.612514 L767.613863,227.24138 L768.226942,227.397939 C768.325613,227.422935 768.505853,227.468982 768.536113,227.488716 L768.603209,227.907084 L769.011051,228.018911 C770.137222,228.329398 771.189718,229.004311 772.056712,229.96866 L772.818456,230.490961 C775.257615,232.132855 777.028439,234.779882 778.078304,238.357053 C778.99266,241.53296 779.093963,245.023299 778.362478,248.184734 L778.257229,248.634676 L778.661124,248.883328 C778.658493,248.938584 778.642705,249.01489 778.629549,249.104352 C778.61113,249.214865 778.591396,249.337217 778.576924,249.463517 L778.511143,250.027918 L779.059757,250.175267 C780.380639,250.530485 781.533122,251.323803 782.304076,252.406559 L783.006617,252.99201 C785.387889,254.995699 787.115298,258.06504 787.866517,261.634317 L788.080963,261.589586 L787.978344,261.614583 C788.938747,265.503555 788.724301,269.46094 787.374475,272.755253 L787.085038,273.460425 L787.827048,273.641981 C789.192662,273.978779 790.434607,274.901029 791.323966,276.241646 L791.992301,276.854724 C794.261745,278.978135 795.832596,282.100101 796.4141,285.657538 C796.695642,287.188919 796.700905,288.911066 796.431203,290.779246 C796.183866,292.514549 795.727346,294.173546 795.070852,295.714137 L794.859037,296.315375 L795.432647,296.585077 C795.522109,296.627177 795.689193,296.704799 795.712874,296.727164 L795.697087,297.153425 L796.078617,297.342874 C797.117956,297.857282 798.016525,298.716381 798.676966,299.82808 L799.31241,300.476681 C800.391219,301.594958 801.279262,302.934259 801.955491,304.455116 C802.279133,305.181338 802.552782,305.952291 802.768544,306.73377 C802.938259,307.404736 803.054034,308.154639 803.144811,309.158457 C803.41846,312.459348 802.836956,315.918113 801.502918,318.896676 L801.313468,319.313728 L801.660792,319.634739 C801.648952,319.688679 801.617377,319.762354 801.585802,319.849185 C801.547649,319.954435 801.502918,320.071525 801.463449,320.193877 L801.28584,320.741175 L801.80551,320.989828 C802.965887,321.546335 803.93813,322.519894 804.618306,323.809201 L805.228753,324.502533 C807.260071,326.757505 808.327038,329.9071 808.398082,333.863169 L808.550694,333.860538 L808.513857,333.861853 C808.696728,337.635051 807.729747,341.593752 805.858935,344.722296 L805.478721,345.359056 L806.15495,345.660333 C807.519248,346.269465 808.615159,347.425895 809.162457,348.830977 L809.696599,349.567724 C813.307976,354.655227 813.119842,362.872589 809.259813,368.681051 L808.94538,369.228349 L809.451894,369.599354 C809.529515,369.657241 809.672918,369.762491 809.692652,369.786172 L809.590034,370.204539 L809.932095,370.465032 C810.843819,371.160995 811.551623,372.171391 811.976568,373.384393 L812.471241,374.14219 C814.110504,376.705018 814.848567,379.909868 814.605177,383.40547 C814.460459,385.257863 814.132869,386.844501 813.606621,388.249583 C812.998805,389.832274 812.210749,391.31103 811.264818,392.646385 L810.996431,393.020021 L811.272712,393.400235 C811.250346,393.45286 811.204299,393.521272 811.154306,393.60284 C811.095103,393.696249 811.031953,393.802815 810.968803,393.914642 L810.685945,394.41984 L811.150359,394.764533 C812.175227,395.52233 812.930393,396.656394 813.336919,398.044373 L813.792124,398.829799 C815.341924,401.561026 815.908956,405.044787 815.386655,408.641692 L815.393233,409.282399 Z M814.924873,398.160148 L814.572286,397.589169 C814.143394,396.173562 813.397438,394.975032 812.400198,394.084357 C812.443613,394.008051 812.477819,393.937008 812.502816,393.868596 C812.601488,393.605472 812.618591,393.344979 812.554125,393.096327 C813.467166,391.754394 814.234172,390.284847 814.83541,388.715312 C815.409021,387.189193 815.761607,385.485465 815.91685,383.50151 C816.18129,379.716472 815.372183,376.235341 813.567153,373.414652 L813.188254,372.864723 C812.717262,371.56489 811.967359,370.457138 811.00301,369.638823 C810.968803,369.345439 810.829348,369.109943 810.666211,368.924441 C814.574918,362.633146 814.64333,354.263172 810.754357,348.784931 L810.351778,348.263945 C809.761064,346.804923 808.683571,345.570871 807.335061,344.789393 C809.107201,341.547705 810.011032,337.583742 809.826845,333.798704 L809.712386,333.803966 C809.629502,329.538726 808.450707,326.112852 806.200997,323.615805 L805.74053,323.117185 C805.034042,321.809459 804.060483,320.771435 802.89879,320.084681 C802.926419,320.000481 802.947468,319.924175 802.959309,319.850501 C803.002724,319.57422 802.967203,319.316359 802.855375,319.086125 C804.170995,315.989156 804.738027,312.439613 804.456485,309.043998 C804.390704,308.317776 804.284138,307.36132 804.040749,306.398286 C803.803937,305.540502 803.507923,304.706399 803.157968,303.920974 C802.419905,302.259346 801.443715,300.793745 800.243869,299.547853 L799.761037,299.079493 C799.040077,297.894119 798.08099,296.948188 796.967976,296.3259 C796.878514,296.045673 796.695642,295.841752 796.500931,295.691771 C797.085066,294.199858 797.499486,292.61322 797.733667,290.966064 C798.024419,288.958428 798.015209,287.092879 797.711301,285.432567 C797.08375,281.602797 795.372129,278.215076 792.875082,275.878534 L792.369884,275.439117 C791.455528,274.090607 790.225423,273.098629 788.849285,272.584222 C790.07018,269.175451 790.21753,265.199647 789.255811,261.30015 L789.146615,261.326462 C788.329615,257.486167 786.45091,254.169489 783.836773,251.969773 L783.318419,251.564562 C782.484315,250.427866 781.312098,249.562188 779.962272,249.080671 C779.974113,248.992525 779.979375,248.913588 779.975428,248.841229 C779.967534,248.628098 779.912278,248.358396 779.726776,248.109744 C780.416161,244.83385 780.283283,241.256679 779.341299,237.989995 C778.200657,234.1076 776.254855,231.217183 773.543362,229.393734 L772.97633,229.024045 C772.035662,227.997861 770.90686,227.251905 769.689911,226.850641 C769.545193,226.594095 769.3268,226.428327 769.105776,226.317815 C769.716224,222.972193 769.47415,219.345029 768.412444,216.049401 C767.904615,214.360145 767.050778,212.726145 765.873298,211.190816 C764.732655,209.698903 763.397301,208.467483 761.879076,207.518921 L761.297571,207.182122 C760.133248,206.03227 758.725534,205.290261 757.265196,205.045555 C757.838807,201.098695 757.263881,197.043955 755.661456,193.822001 L755.560153,193.871995 C754.022193,190.273774 751.538303,187.382042 748.542636,185.719098 L747.949291,185.416505 C746.849433,184.432422 745.594332,183.799609 744.286605,183.564113 C744.283974,183.47465 744.27608,183.395713 744.262924,183.320723 C744.208984,183.044443 744.081369,182.808947 743.894551,182.630022 C744.001116,176.367671 740.819947,168.537101 734.408931,165.387507 C734.186591,165.275679 733.964251,165.184902 733.737964,165.096755 C732.617056,164.270546 731.365902,163.750876 730.091066,163.585108 C729.901617,163.360137 729.65428,163.2391 729.414837,163.172003 C729.383262,159.784282 728.458381,156.27947 726.782282,153.240388 C725.869241,151.581391 724.766752,150.118422 723.486654,148.87253 C722.080256,147.624006 720.531771,146.667551 718.859618,146.021581 L718.221543,145.800557 C716.855929,144.891464 715.358753,144.450731 713.844475,144.458625 C713.672129,140.647274 712.389399,136.762248 710.279145,133.699485 L709.764737,133.157449 L709.759475,133.162712 C707.612383,130.222301 704.790378,128.072578 701.724984,127.066129 L701.081646,126.879311 C699.812072,126.120198 698.403043,125.738668 697.122945,125.747877 C697.103211,125.661047 697.080845,125.584741 697.053217,125.51896 C696.95323,125.263729 696.791409,125.059808 696.578278,124.917721 C696.155964,121.662877 694.76667,118.448818 692.548534,115.597869 C690.208047,112.60615 687.278161,110.562992 684.056208,109.682842 L683.407607,109.53023 C682.118299,108.85137 680.830307,108.55404 679.5831,108.623768 C679.355497,108.43695 679.089742,108.365906 678.84109,108.346172 C678.176702,105.036072 676.61243,101.778597 674.394295,99.1131512 C673.183924,97.6620224 671.826204,96.434549 670.359288,95.4701995 C668.747654,94.395338 667.058398,93.7059531 665.325726,93.419148 L664.656076,93.3204765 C663.139166,92.6837164 661.548581,92.5113702 660.090874,92.8218565 C659.235721,89.2065329 657.258344,85.6372559 654.598161,82.9336568 L654.10875,82.5692301 C652.997051,81.4101689 651.682747,80.4274008 650.197412,79.6419757 C648.521312,78.7460385 646.7768,78.176375 644.988873,77.9461415 L644.317906,77.8829918 C642.928612,77.3791093 641.519583,77.2528098 640.203963,77.5159338 C640.169757,77.4343654 640.132919,77.3620063 640.093451,77.3028034 C639.944786,77.068623 639.747443,76.9002237 639.513262,76.8015522 C637.301705,69.9642752 631.01962,64.6583799 624.415208,64.1202913 L623.748188,64.0926633 C622.427306,63.6848211 621.090636,63.6203557 619.855269,63.892689 C619.60267,63.744024 619.331652,63.7124491 619.081684,63.7321834 C616.392557,56.8159692 609.755254,51.7126794 603.069274,51.5153364 L602.400939,51.5219145 C600.826142,51.1509097 599.218454,51.2758936 597.800216,51.8745006 C596.283306,48.4959886 593.670485,45.375338 590.544571,43.2335087 L590.481422,43.3269177 C588.959249,42.1968002 587.344984,41.3205973 585.666253,40.7167277 C583.912531,40.1496955 582.086451,39.9141995 580.213008,40.0326053 L579.540726,40.0983863 C578.071179,39.8668372 576.659518,40.0141866 575.416257,40.5220159 C575.366264,40.4483412 575.317586,40.3865071 575.266277,40.3338823 C575.072881,40.1312768 574.845278,40.0036617 574.593995,39.9523525 C572.920526,37.0264137 570.436636,34.4201705 567.540956,32.5717245 C564.267694,30.679863 560.772092,29.8786504 557.423839,30.2720208 L556.762082,30.3720079 C555.381997,30.2299209 554.054536,30.4154233 552.887581,30.9232527 C552.609985,30.8272124 552.340283,30.8482623 552.102156,30.9114121 C551.266737,29.5405361 550.252394,28.245966 549.073599,27.0526987 C547.85665,25.8449596 546.400259,24.7898324 544.621541,23.8241673 C541.141726,21.9691432 537.509299,21.2929145 534.099212,21.8704717 L533.446665,22.0046649 C531.803456,21.9112559 530.277336,22.2954169 529.038022,23.0847889 C526.95408,20.0575473 523.86632,17.559185 520.274678,16.0054378 L519.636602,15.8409853 C516.20415,14.3464411 512.742753,13.9372833 509.552375,14.6700836 L508.901143,14.8674266 C507.411861,14.9266295 506.048879,15.3463122 504.91613,16.0870063 C504.854296,16.0251721 504.795093,15.973863 504.733259,15.9317631 C504.509604,15.7738887 504.260952,15.6923203 504.004406,15.6910047 C501.80732,13.1531738 498.873488,11.0876504 495.704159,9.85491449 C493.980697,9.18657955 492.257235,8.78005298 490.553507,8.64585974 C488.745845,8.57876312 486.990808,8.8142591 485.33839,9.34576957 L484.701629,9.57468744 C483.317597,9.7036182 482.042762,10.150929 480.98895,10.8771512 C480.696882,10.836367 480.433758,10.9100417 480.212734,11.0192382 C477.911715,8.50771965 474.872633,6.50534605 471.57832,5.34496924 C467.982731,4.17538309 464.181905,4.21485169 460.854702,5.46469066 L460.235045,5.72518341 C458.615517,5.96067939 457.177544,6.63296119 456.102683,7.64861981 C453.313568,4.81740564 449.731135,2.83608196 446.175014,2.1730095 L445.617191,2.1598533 C441.999237,1.37179694 438.403647,1.65597085 435.422452,2.97948454 L434.82253,3.27155217 C433.374032,3.55704171 432.113668,4.17801433 431.137478,5.08184525 C431.063803,5.03053607 430.995391,4.98712061 430.930926,4.95686135 C430.67438,4.83056184 430.420465,4.78583076 430.157341,4.82924622 C424.518594,0.335088406 416.385431,-0.847653945 410.654591,2.0480256 L410.078349,2.36772126 C408.736417,2.68873253 407.55499,3.35575185 406.636687,4.30826071 C406.341989,4.32667939 406.098599,4.4529789 405.901256,4.60295958 C400.609832,0.732405636 392.20039,-1.15550902 385.857786,2.64531707 L385.2947,3.02553124 C383.746216,3.58072287 382.455592,4.53060048 381.587283,5.74360209 C378.521889,3.6557132 374.655282,2.35982754 370.870243,2.16248454 L370.280845,2.22300306 C366.706306,1.96382593 363.231753,2.90712544 360.401855,4.91081465 L359.866398,5.31865684 C358.496837,5.88832029 357.371982,6.75268261 356.578663,7.83675346 C356.497095,7.80123172 356.424736,7.7736037 356.353692,7.75650064 C356.089253,7.68545717 355.823497,7.69466651 355.581423,7.78412866 C352.531816,6.12776312 349.055948,5.21998535 345.732692,5.21998535 C345.722167,5.21998535 345.710327,5.21998535 345.699802,5.22130097 C341.912132,5.33707552 338.52441,6.49087424 335.885277,8.57350064 L335.374816,9.00633961 C334.124977,9.6049467 333.092216,10.4640465 332.368625,11.5086488 C332.081819,11.5717986 331.862111,11.7309886 331.693712,11.9099129 C330.261001,11.1810594 328.715148,10.611396 327.081148,10.2114475 C325.369526,9.83649581 323.523712,9.70230258 321.606853,9.81807713 C317.67315,10.0680449 314.227541,11.3981367 311.627876,13.682053 L311.142412,14.1398887 C309.707071,14.9200514 308.598003,16.0501689 307.958612,17.3749982 C304.594571,15.8962414 300.65429,15.3910433 296.783736,15.9593911 L296.154869,16.1541029 C292.447452,16.6842977 289.287333,18.1564765 286.960001,20.4588114 L286.508744,20.9666407 C285.273377,21.8007438 284.334024,22.8742897 283.759098,24.0991319 C283.673583,24.0793976 283.595961,24.0662414 283.524918,24.0636101 C283.309156,24.0491383 283.034191,24.078082 282.771067,24.2412188 C279.570164,23.2347696 275.990362,23.0203235 272.643425,23.6373493 C270.75551,23.9925667 269.074148,24.5569676 267.630913,25.3239741 C266.050853,26.2225425 264.686555,27.3381882 263.5617,28.6564395 L263.139386,29.1840031 C262.029003,30.0207374 261.179113,31.0692865 260.664705,32.2401882 C260.395003,32.3572784 260.209501,32.5585683 260.077939,32.7690675 C256.800729,31.8376085 253.157778,31.7284121 249.733219,32.473053 C245.995543,33.4558211 242.789377,35.4897696 240.688332,38.2209966 L240.298908,38.7669789 C239.043807,39.8128968 238.171551,41.1390417 237.791336,42.5638581 C236.087609,42.1441754 234.319415,41.9507792 232.444657,41.9705135 C230.423865,42.0678694 228.422807,42.4678179 226.496739,43.1558871 L225.932338,43.4650578 C222.461733,44.6885844 219.572631,46.7948919 217.737341,49.4616536 L217.378177,50.024739 C216.269109,51.0575006 215.520522,52.2560304 215.186354,53.5242881 C215.098208,53.5203412 215.017955,53.5229725 214.946911,53.534813 C214.735096,53.5624411 214.471972,53.6440095 214.241739,53.8545087 C208.124106,53.1809113 199.989628,55.3293187 196.179592,61.7442816 L195.866475,62.34552 C194.935016,63.3822285 194.298256,64.5794427 194.012766,65.8305973 C193.772008,65.9989966 193.62729,66.2344926 193.537828,66.4660417 C186.849216,65.9187438 178.659481,68.7433799 175.488837,75.3951544 L175.20861,76.0082333 C174.174533,77.2791222 173.568032,78.7526166 173.462782,80.2300578 C171.71827,80.1405957 169.93429,80.2839982 168.143731,80.6550031 C165.929543,81.1167857 164.000844,81.849586 162.414206,82.836301 L162.473409,82.9323412 C159.039641,84.8070997 156.400507,87.5567454 155.027,90.6997615 L154.779663,91.3207341 C153.904776,92.5113702 153.393,93.8217277 153.281172,95.1505039 C153.193026,95.1610288 153.115404,95.1755006 153.045676,95.1965506 C152.778605,95.2741721 152.556266,95.420206 152.394444,95.6214958 C145.21379,96.0503879 138.396248,100.645848 136.082072,106.68586 L135.871573,107.309464 C134.961164,108.642187 134.69804,110.040691 134.658571,111.078715 C134.452019,111.29053 134.354663,111.548391 134.309932,111.794412 C130.945892,112.143051 127.548961,113.395522 124.683541,115.350533 C121.302398,117.664708 119.063212,120.610381 118.202797,123.881013 L118.040976,124.537507 C117.26476,125.984689 116.94638,127.550277 117.11741,129.027718 C113.431043,129.539494 109.686789,131.170863 106.7398,133.56266 L106.812159,133.650807 C103.803336,136.037341 101.710185,139.23956 100.914235,142.69701 L100.789251,143.356135 C100.152491,144.691489 99.8946295,146.079468 100.034085,147.410876 C99.9485699,147.438504 99.8748952,147.466132 99.8091142,147.501654 C99.560462,147.629269 99.373644,147.810824 99.2539225,148.035795 C97.6659692,148.414694 96.1069596,148.986989 94.5979435,149.748733 C93.034987,150.61441 91.5956987,151.666906 90.3221786,152.874646 C87.5672704,155.490098 85.8109177,158.601539 85.2399386,161.897167 L85.1478452,162.557609 C84.6176504,163.832444 84.4242543,165.153327 84.5834443,166.405797 C84.4032043,166.653133 84.3492639,166.929414 84.3479483,167.182013 C78.1263815,169.058087 71.5772253,174.628422 70.7220723,182.012997 L70.6865506,182.693172 C70.1971399,184.261391 70.1787213,185.866448 70.6234008,187.291264 C67.1120111,188.480584 63.7506021,190.786866 61.3153895,193.691755 L61.4009048,193.764114 C58.8222897,196.512444 57.3330079,200.033043 57.2053928,203.703623 L57.2067084,204.37722 C56.8357035,205.815193 56.8462285,207.232116 57.2330208,208.516161 C57.1540836,208.559576 57.086987,208.600361 57.0304153,208.646407 C56.813338,208.816122 56.6633573,209.031884 56.5870514,209.277905 C55.1122414,209.942293 53.6940031,210.794815 52.3691738,211.815736 C50.7496456,213.06689 49.5208565,214.320676 48.6222881,215.638927 C46.4212559,218.726687 45.2898227,222.120987 45.3542881,225.477133 L45.3911254,226.145468 C45.112214,227.500557 45.1740481,228.839858 45.5647873,230.044966 C45.4437502,230.30809 45.4371721,230.577792 45.4766407,230.818551 C42.4665023,232.244683 39.8128968,234.590433 37.7736858,237.636093 C35.6160691,240.871203 34.5596262,244.510208 34.8003847,247.908454 L34.8714282,248.568895 C34.72671,249.497723 34.7398662,250.406816 34.9122124,251.289597 C35.0542994,251.927673 35.2779548,252.531543 35.581863,253.094628 C32.3717502,254.92334 29.523433,257.82165 27.6960369,261.139644 L27.4750127,261.74746 C26.6632752,263.20122 26.05809,264.703658 25.6726134,266.224515 C25.4200143,267.249383 25.2845055,268.105852 25.2437213,268.936008 C25.2187245,269.866151 25.279243,270.789716 25.4265924,271.708019 L25.5568388,272.373723 C25.4700079,273.857742 25.7541818,275.253615 26.3804169,276.446882 C26.3133203,276.50477 26.255433,276.557394 26.2107019,276.613966 C26.068615,276.774472 25.9252124,277.011283 25.8936375,277.319138 C23.146623,279.263625 20.799557,281.984327 19.2563348,285.022093 C18.7866585,285.96013 18.4577535,286.740293 18.2196262,287.492828 C17.9683428,288.351927 17.7828404,289.217605 17.6683815,290.063549 C17.4236762,291.85937 17.4828791,293.617038 17.8486214,295.314188 L18.0130739,295.968051 C18.0038646,297.35603 18.3235602,298.663757 18.9419016,299.779402 C18.8721738,300.063576 18.9208517,300.331963 19.006367,300.563512 C17.7262688,301.52523 16.5395795,302.657979 15.4739274,303.935446 C14.1714636,305.49314 13.1979048,307.08504 12.5861415,308.65589 C11.0850192,312.297526 10.770586,315.979947 11.6823106,319.326884 L11.8796536,319.96496 C11.9520127,321.592381 12.4769451,323.082979 13.3768291,324.244671 C10.5232494,326.519378 8.30511417,329.824216 7.0947438,333.63162 L6.9960723,334.277589 C5.87253285,337.778454 5.80148937,341.347731 6.81451675,344.415757 L7.04343462,345.039361 C7.12500306,345.874779 7.31839919,346.66152 7.63020113,347.393005 C7.88411578,347.944249 8.19591771,348.452079 8.56166006,348.908599 C8.50771965,348.977011 8.46035733,349.038845 8.42615121,349.103311 C8.32090161,349.288813 8.22617697,349.549306 8.25643623,349.859792 C4.01487746,354.355266 0.817920934,362.145051 3.65702882,369.027059 L3.94909646,369.640138 C4.21485169,371.005752 4.78714638,372.233225 5.61467134,373.217309 C5.60283076,373.512008 5.70413349,373.767238 5.83437987,373.977737 C3.57019791,376.501096 1.88225749,379.715156 1.06131063,383.094984 C0.58110934,385.153929 0.423234944,386.932647 0.5784781,388.539019 C0.775821095,390.408515 1.27575668,392.159605 2.07828486,393.76203 L2.39929614,394.355375 C2.79661337,395.947275 3.61098213,397.318151 4.72794348,398.294341 C2.34272448,401.155815 0.663993398,404.884282 0.0864362319,408.635114 L0.0851206119,409.392911 L0.107486151,409.392911 C-0.275359259,413.012182 0.371925765,416.503837 1.96645717,419.310055 L2.3177277,419.882349 C2.74925105,421.297956 3.49389195,422.497802 4.4924475,423.385845 C4.44903205,423.463467 4.41351031,423.53451 4.38982915,423.602923 C4.29115765,423.860784 4.27668583,424.123908 4.33851997,424.37256 C3.42679533,425.710546 2.65978889,427.181409 2.05591932,428.75489 C1.48362464,430.278378 1.12972287,431.982106 0.97447971,433.968692 C0.711355717,437.756362 1.51914638,441.237493 3.32417697,444.058182 L3.70307552,444.606795 C4.17406747,445.905312 4.92397085,447.013064 5.88832029,447.832695 C5.92252641,448.126079 6.06198213,448.361575 6.22380338,448.547077 C2.31641208,454.838372 2.24931546,463.208346 6.13697246,468.685272 L6.53823655,469.207573 C7.13026554,470.666596 8.20644267,471.899332 9.55626876,472.68081 C7.78544428,475.923813 6.88029775,479.887776 7.06580016,483.672815 L7.1802591,483.667552 C7.26051192,487.930161 8.44062303,491.356035 10.6903332,493.855713 L11.1521158,494.354333 C11.8586037,495.662059 12.8321625,496.700084 13.9912237,497.386837 C13.9649113,497.469721 13.9438614,497.546027 13.934652,497.618386 C13.8991303,497.828886 13.9004459,498.105166 14.0372704,498.385393 C12.7216504,501.482362 12.1533026,505.030589 12.4361609,508.424889 C12.5308855,509.497119 12.6585006,510.308857 12.8505812,511.073232 C13.0860771,511.928385 13.3847229,512.762488 13.7333622,513.550544 C14.4687937,515.20691 15.4436681,516.67251 16.6474604,517.923665 L17.1302929,518.392026 C17.849937,519.577399 18.8103396,520.52333 19.9220385,521.145618 C20.0141319,521.42453 20.1943718,521.629766 20.3903992,521.779747 C19.8049483,523.272976 19.3918436,524.859613 19.1576633,526.504138 C18.8669113,528.507828 18.874805,530.374692 19.1813444,532.040267 C19.8075795,535.870037 21.5192011,539.257758 24.0175634,541.592984 L24.5201303,542.032401 C25.4371174,543.380911 26.6659064,544.374204 28.0420449,544.887296 C26.8211496,548.296067 26.6724845,552.273187 27.6355184,556.171369 L27.7460304,556.143741 C28.5617148,559.984035 30.4391045,563.300713 33.054557,565.50043 L33.5715957,565.906956 C34.4056987,567.042336 35.5805473,567.908014 36.9277422,568.390847 C36.9172172,568.477678 36.9106391,568.555299 36.914586,568.628974 C36.9237953,568.903939 37.0119419,569.152591 37.167185,569.359143 C36.4751689,572.633721 36.6093622,576.212208 37.5500304,579.481523 C38.6893573,583.363918 40.6364749,586.25565 43.346652,588.076468 L43.9149998,588.447473 C44.8556681,589.472341 45.9857857,590.218298 47.2027341,590.620877 C47.3461367,590.877423 47.5645296,591.041876 47.7855538,591.152388 C47.1737905,594.49801 47.4171802,598.125174 48.4788855,601.422117 C48.9867148,603.108742 49.8405522,604.744058 51.018032,606.279386 C52.1586746,607.772615 53.4966601,609.005351 55.0109386,609.951282 L55.5950739,610.289396 C56.7593976,611.439248 58.167111,612.181257 59.6248179,612.424647 C59.0525232,616.374138 59.6274491,620.428879 61.2311899,623.649517 L61.5574636,624.107352 C63.1072639,627.470077 65.4964298,630.168414 68.3473783,631.75242 L68.9420385,632.055013 C70.0418968,633.039096 71.2956826,633.67191 72.6034089,633.90609 C72.6073557,633.998183 72.6139338,634.075805 72.6297213,634.146848 C72.6823461,634.424444 72.8086456,634.662571 72.9967792,634.841496 C72.890214,641.103847 76.0726987,648.934417 82.4823992,652.084011 C82.7034233,652.195839 82.9257631,652.285301 83.154681,652.373448 C84.2716424,653.200972 85.5254282,653.719327 86.8002639,653.88641 C86.9910288,654.111381 87.2370498,654.232419 87.4764926,654.2982 C87.5080675,657.688552 88.4329483,661.194679 90.1090481,664.23113 C91.023404,665.892758 92.1258936,667.354412 93.4059918,668.597673 C94.8084427,669.846196 96.3595586,670.802652 98.0317116,671.448621 L98.6697873,671.669646 C100.036716,672.580055 101.556257,673.062887 103.046855,673.011578 C103.220517,676.82556 104.501931,680.710586 106.614816,683.772034 L107.129224,684.318016 L107.133171,684.312753 C109.282894,687.251848 112.104898,689.400256 115.167662,690.40539 L115.811,690.590892 C117.080573,691.350005 118.393562,691.696013 119.7697,691.723641 C119.788119,691.810472 119.810485,691.888093 119.838113,691.951243 C119.940731,692.213051 120.101237,692.415657 120.313051,692.556428 C120.736681,695.809956 122.12466,699.0227 124.34148,701.873649 C126.683283,704.864053 129.611853,706.907211 132.835122,707.788676 L133.485038,707.941288 C134.774346,708.621464 136.059707,708.926687 137.310861,708.846435 C137.539779,709.030621 137.804219,709.102981 138.05024,709.122715 C138.713312,712.43413 140.280216,715.692921 142.49572,718.355736 C143.704774,719.80818 145.062494,721.035654 146.532042,722.000003 C148.142361,723.074865 149.831617,723.762934 151.565604,724.053686 L152.23657,724.151042 C153.750848,724.786486 155.338802,724.957517 156.800456,724.648346 C157.655609,728.262354 159.63167,731.832947 162.291853,734.537861 L162.785211,734.906235 C163.898225,736.062665 165.211214,737.044117 166.695233,737.829543 C168.372649,738.72548 170.117161,739.296459 171.902457,739.525377 L172.572108,739.585895 C173.964034,740.09504 175.375694,740.220024 176.687367,739.955584 C176.722889,740.037153 176.757095,740.106881 176.797879,740.167399 C176.911022,740.346324 177.093894,740.550245 177.376752,740.669966 C179.59094,747.505927 185.873026,752.813138 192.476122,753.351227 L193.143142,753.380171 C194.462708,753.786697 195.803325,753.853794 197.034745,753.576198 C197.291291,753.726179 197.563625,753.764332 197.809646,753.738019 C200.497457,760.655549 207.13476,765.758839 213.820741,765.954866 L214.490391,765.950919 C216.069135,766.319293 217.675507,766.195625 219.091114,765.597018 C220.606708,768.972898 223.220845,772.093549 226.346758,774.236694 L226.929578,774.516921 C228.296507,775.468114 229.73448,776.218018 231.226393,776.753475 C232.98143,777.321823 234.800932,777.546794 236.678322,777.438913 L237.351919,777.371816 C238.81752,777.600734 240.22918,777.457332 241.476388,776.948187 C241.526381,777.023177 241.575059,777.085011 241.625053,777.135005 C241.818449,777.340241 242.044736,777.467857 242.297335,777.519166 C243.970803,780.44642 246.45601,783.052663 249.350373,784.899794 C252.624952,786.791655 256.116607,787.590237 259.46486,787.199497 L260.129248,787.09951 C261.506702,787.24686 262.838109,787.05741 264.003749,786.548266 C264.28266,786.64299 264.553678,786.62194 264.789174,786.560106 C265.625908,787.933613 266.641567,789.226868 267.816415,790.417504 C269.033364,791.625243 270.488439,792.68037 272.269789,793.646035 C275.746972,795.499744 279.379399,796.178604 282.790802,795.602362 L283.444665,795.466853 C285.073402,795.557631 286.613993,795.176101 287.854623,794.386729 C289.937249,797.413971 293.023694,799.912333 296.617968,801.46608 L296.662699,801.362146 C300.287232,803.072452 303.961758,803.576335 307.338955,802.800119 L307.990187,802.604092 C309.478153,802.543573 310.842451,802.125206 311.9752,801.383196 C312.037034,801.44503 312.096237,801.497655 312.158071,801.538439 C312.331733,801.662108 312.5817,801.781829 312.890871,801.781829 C315.086641,804.318344 318.017842,806.382552 321.187171,807.613972 C322.910633,808.283623 324.63541,808.691465 326.339138,808.825658 C328.159956,808.880914 329.905784,808.654628 331.55294,808.124433 L332.1897,807.895515 C333.575048,807.7679 334.849884,807.319274 335.90238,806.594367 C336.187869,806.633836 336.456256,806.560161 336.678596,806.450964 C338.979615,808.963799 342.020013,810.966172 345.311694,812.125233 C348.909914,813.297451 352.709425,813.257982 356.037943,812.005512 L356.654969,811.745019 C358.274497,811.510839 359.715101,810.838557 360.788647,809.822898 C363.576446,812.654113 367.158879,814.634121 370.715,815.295877 L370.73605,815.185365 C374.534245,816.123402 378.337702,815.880013 381.470193,814.490718 L382.070116,814.19865 C383.517298,813.914476 384.777662,813.293504 385.755167,812.389673 C385.827526,812.440982 385.895939,812.484398 385.96172,812.514657 C386.214319,812.640956 386.474811,812.683056 386.732673,812.640956 C390.299319,815.482695 394.861889,816.999605 399.1837,816.999605 C401.696534,816.999605 404.129116,816.486514 406.236739,815.422177 L406.812981,815.103797 C408.152282,814.784101 409.333708,814.117082 410.253327,813.164573 C410.548026,813.150101 410.794047,813.022486 410.99139,812.869874 C416.28676,816.737797 424.692256,818.627027 431.03486,814.826201 L431.596629,814.445987 C433.143799,813.890795 434.435737,812.939602 435.304047,811.7266 C438.370757,813.814489 442.236048,815.111691 446.021087,815.306402 L446.026349,815.19589 C449.799547,815.593208 453.50828,814.672274 456.486844,812.560704 L457.026248,812.152861 C458.395808,811.580567 459.520663,810.71752 460.312667,809.633449 C460.394235,809.670286 460.46791,809.697914 460.537638,809.715018 C460.74419,809.768958 461.02047,809.796586 461.312538,809.688705 C464.362145,811.342439 467.836697,812.251533 471.162584,812.251533 L471.191528,812.251533 C474.980514,812.133127 478.368235,810.978013 481.004737,808.898018 L481.517829,808.463863 C482.766352,807.865256 483.797799,807.006156 484.522705,805.962869 C484.80951,805.901035 485.030534,805.74053 485.198934,805.56029 C486.630328,806.290459 488.176182,806.858807 489.808866,807.258755 C491.520488,807.633707 493.362356,807.766584 495.285792,807.653441 C499.16424,807.406105 502.700626,806.039175 505.26477,803.786834 L505.748918,803.331629 C507.182943,802.550151 508.292011,801.418718 508.932718,800.09652 C512.29939,801.576592 516.239671,802.077844 520.10891,801.513443 L520.091807,801.400299 C524.078135,800.951673 527.469803,799.445288 529.931328,797.012707 L530.38127,796.503562 C531.617953,795.670774 532.558621,794.598544 533.132232,793.372386 C533.219063,793.392121 533.295369,793.405277 533.369043,793.407908 C533.580858,793.419749 533.854507,793.392121 534.120262,793.230299 C537.321166,794.236749 540.899652,794.453826 544.246589,793.834169 C546.133188,793.478952 547.814551,792.915866 549.259101,792.147544 C550.839161,791.24766 552.204774,790.132014 553.330945,788.813763 L553.751943,788.2862 C554.862327,787.450781 555.710902,786.400916 556.226625,785.23133 C556.496327,785.11424 556.681829,784.91295 556.812076,784.702451 C560.0906,785.63391 563.733552,785.740475 567.158111,784.99715 C570.895787,784.015697 574.103269,781.980433 576.201683,779.251837 L576.592422,778.704539 C577.847523,777.658621 578.719779,776.332476 579.101309,774.906344 C580.803721,775.326027 582.599543,775.52337 584.445357,775.499689 C586.46615,775.402333 588.468523,775.002385 590.394591,774.314315 L590.961623,774.00646 C594.432229,772.781618 597.320014,770.675311 599.155304,768.008549 L599.513153,767.445464 C600.62222,766.414018 601.370808,765.215488 601.704976,763.94723 C601.794438,763.945914 601.872059,763.94723 601.945734,763.936705 C602.157549,763.909077 602.420673,763.826193 602.649591,763.615694 C608.758014,764.291923 616.900386,762.140884 620.710422,755.727237 L621.024855,755.124683 C621.956314,754.090605 622.591758,752.893391 622.877248,751.640921 C623.120638,751.472522 623.26404,751.237026 623.353502,751.005476 C630.056586,751.558037 638.23448,748.729454 641.402493,742.075048 L641.68272,741.461969 C642.716797,740.19108 643.323298,738.718902 643.428547,737.24146 C645.174375,737.329607 646.960987,737.18752 648.746283,736.813884 C650.959156,736.356048 652.887855,735.623248 654.477124,734.635217 L654.417921,734.539177 C657.850373,732.663103 660.492138,729.913457 661.865646,726.769125 L662.110351,726.149468 C662.986554,724.958832 663.49833,723.648475 663.610158,722.321014 C663.698304,722.310489 663.775926,722.296018 663.844338,722.273652 C664.116671,722.19603 664.337695,722.051312 664.499517,721.848707 C671.681486,721.42113 678.495082,716.824354 680.807942,710.786974 L681.019757,710.162055 C681.930166,708.830647 682.191974,707.430828 682.231443,706.391488 C682.437995,706.180989 682.536667,705.923127 682.581398,705.677106 C685.946753,705.325836 689.343684,704.074681 692.206473,702.120985 C695.588932,699.80681 697.829433,696.861137 698.688533,693.590505 L698.849038,692.934011 C699.625254,691.486829 699.94495,689.919926 699.773919,688.4438 C703.458971,687.932024 707.205857,686.300655 710.15153,683.908858 L710.077855,683.819396 C713.087993,681.431546 715.181145,678.230642 715.97841,674.774509 L716.102079,674.115383 C716.738839,672.778713 716.995385,671.39205 716.857245,670.060642 C716.941444,670.033014 717.016435,670.005386 717.0809,669.968549 C717.330868,669.842249 717.51637,669.660694 717.637407,669.434407 C719.226676,669.054193 720.785686,668.483214 722.292071,667.72147 C723.856343,666.857108 725.295631,665.804612 726.570467,664.594241 C729.322744,661.98142 731.079096,658.869979 731.651391,655.573035 L731.742169,654.91391 C732.272364,653.641705 732.467076,652.319507 732.309201,651.064406 C732.488125,650.818385 732.542066,650.542105 732.542066,650.28819 C738.763633,648.413431 745.312789,642.841781 746.169257,635.457206 L746.203464,634.778346 C746.692874,633.207496 746.711293,631.603755 746.266613,630.180254 C749.778003,628.989618 753.140728,626.684652 755.57594,623.779763 L755.490425,623.706088 C758.06904,620.959074 759.559638,617.43979 759.685937,613.767895 L759.684621,613.092982 C760.055626,611.656325 760.046417,610.240718 759.659625,608.955357 C759.735931,608.911942 759.803027,608.871158 759.860914,608.823795 C760.077992,608.65408 760.227972,608.439634 760.304278,608.193613 C761.779088,607.529225 763.196011,606.676704 764.522156,605.655782 C766.146947,604.399365 767.37442,603.144264 768.269042,601.832591 C770.470074,598.743515 771.600191,595.350531 771.535726,591.9957 L771.50152,591.32605 C771.780431,589.970961 771.718597,588.630344 771.325227,587.425237 C771.44758,587.162113 771.454158,586.893726 771.413373,586.652968 C774.426143,585.22552 777.079749,582.878454 779.117644,579.835425 C781.30552,576.552953 782.334335,573.007357 782.090945,569.56438 L782.021217,568.902623 C782.16462,567.97248 782.151464,567.063386 781.980433,566.180605 C781.835715,565.539898 781.610744,564.936029 781.309467,564.37689 C784.518264,562.546863 787.365266,559.648552 789.193977,556.330559 L789.416317,555.724058 C790.22937,554.268982 790.834555,552.76786 791.218716,551.245687 C791.471315,550.220819 791.606824,549.363035 791.646293,548.53551 C791.673921,547.606683 791.613402,546.681802 791.464737,545.762183 L791.333175,545.097795 C791.420006,543.61246 791.137148,542.217903 790.510913,541.02332 C790.579325,540.966749 790.635897,540.914124 790.681943,540.858868 C790.822715,540.697047 790.967433,540.460235 790.997692,540.151064 C793.743391,538.206578 796.090457,535.487191 797.634995,532.448109 C798.115196,531.486391 798.433576,530.728594 798.670388,529.978691 C798.921671,529.122222 799.108489,528.25786 799.222948,527.406654 C799.467654,525.606886 799.408451,523.847902 799.041393,522.156014 L798.87694,521.503467 C798.887465,520.115488 798.56777,518.807762 797.949428,517.692116 C798.019156,517.407942 797.971794,517.13824 797.883647,516.908006 C799.165061,515.946288 800.350435,514.813539 801.416087,513.536072 C802.719866,511.978378 803.693425,510.386478 804.305188,508.814312 C805.783945,505.226617 806.106272,501.445525 805.210335,498.14595 L805.011676,497.506559 C804.940633,495.877821 804.414385,494.387224 803.514501,493.226847 C806.369396,490.95214 808.586216,487.645987 809.796586,483.839898 L809.893942,483.195245 C811.018797,479.69438 811.08984,476.123787 810.076813,473.054446 L809.84658,472.430842 C809.767642,471.596739 809.572931,470.812629 809.262444,470.078514 C809.007214,469.525953 808.695412,469.018124 808.32967,468.564235 C808.384926,468.494507 808.430972,468.430042 808.466494,468.364261 C808.570428,468.180074 808.665153,467.919581 808.633578,467.611726 C812.875137,463.116253 816.073409,455.323836 813.232985,448.444459 L812.943549,447.832695 C812.676478,446.463135 812.102868,445.234346 811.275343,444.254209 C811.287183,443.95951 811.185881,443.70428 811.055634,443.493781 C813.323763,440.96779 815.009072,437.753731 815.828704,434.376534 C816.31022,432.317589 816.468095,430.538871 816.311536,428.932499 C816.115509,427.063003 815.614257,425.311913 814.814361,423.708172 L814.490718,423.116143 C814.096032,421.525559 813.281663,420.153367 812.162071,419.177177 C814.548605,416.313072 816.228652,412.584605 816.803578,408.835088 L816.804894,408.077291 L816.783844,408.077291 C817.168005,404.460652 816.519404,400.970312 814.924873,398.160148 Z" id="Fill-57"></path>
                </g>
            </g>
        </g>
    </g>
</svg>